<svg width="1530" height="845" viewBox="0 0 1530 845" fill="none" xmlns="http://www.w3.org/2000/svg">
<path d="M1205.23 1599C1082.67 1459.48 958.76 1321.73 829.39 1188.39C606.471 958.629 371.685 740.111 163.067 496.85C158.65 491.699 86.346 404.674 73.976 388.292C41.6729 345.514 97.1689 385.143 108.576 392.021C344.494 534.266 583.772 670.337 821.517 809.471C899.585 855.158 947.399 884.008 1024.15 927.973C1053.59 944.841 1108.18 983.664 1145.98 993.232C1149.1 994.023 1145.87 986.528 1144.32 983.702C1125.18 948.85 1101.42 915.245 1079.05 882.602C980.673 738.99 869.355 604.997 765.576 465.36C762.546 461.283 626.64 295.287 648.306 274.763C653.854 269.507 663.864 274.784 671.097 277.249C747.26 303.204 821.679 340.83 894.034 375.033C1072.44 459.371 1247.01 550.23 1415.74 652.643C1483.99 694.069 1461.98 681.777 1519.75 717.28C1522.1 718.728 1559.68 746.122 1537.98 721.631C1427.56 597.028 1299.85 489.014 1190.11 363.432C1122.94 286.569 1057.68 206.662 1021.25 110.269C1021.11 109.91 1011.91 85.1375 1013.37 80.4361C1014.18 77.8573 1017.55 76.5445 1020.21 76.0856C1041.3 72.4499 1062.92 78.9545 1084.23 80.8505C1356.38 105.058 1629.55 110 1902.63 111.097C2061.38 111.735 2221.6 115.704 2380 107.368" stroke="url(#paint0_radial_529_913)" stroke-opacity="0.03" stroke-width="150" stroke-linecap="square"/>
<defs>
<radialGradient id="paint0_radial_529_913" cx="0" cy="0" r="1" gradientUnits="userSpaceOnUse" gradientTransform="translate(764.942 404.674) rotate(40.5042) scale(805.438 1361.35)">
<stop stop-color="#15183F"/>
<stop offset="1" stop-color="white" stop-opacity="0"/>
</radialGradient>
</defs>
</svg>
