<svg width="864" height="551" viewBox="0 0 864 551" fill="none" xmlns="http://www.w3.org/2000/svg">
<g filter="url(#filter0_d_434_3235)">
<path fill-rule="evenodd" clip-rule="evenodd" d="M471.038 219.361L455.529 221.484L461.847 212.198L459.119 207.024L404.407 211.932L358.167 215.381L351.418 215.779L352.28 219.494L357.88 246.291L358.024 252.26L359.603 288.344L359.747 294.313L360.178 294.446L362.332 296.568L370.948 296.303L371.81 307.977L372.097 311.294L376.548 310.896L390.19 309.967L444.328 305.324H444.615L444.472 302.405L445.908 301.477L443.323 296.966L448.78 275.741L446.626 273.353L454.811 264.996L454.237 257.832L460.268 248.546V248.413L459.981 248.148L465.15 243.77L463.714 238.464L467.735 232.627L466.873 227.188L471.181 219.494V219.361L471.038 219.361Z" fill="#1260F5"/>
<path fill-rule="evenodd" clip-rule="evenodd" d="M350.411 198.401L346.821 142.287L340.359 138.838L339.785 136.184L334.615 131.939L339.641 126.235L337.631 122.919L333.897 123.051L330.451 120.796L329.015 119.735L324.132 120L271.144 121.857L246.875 122.388H198.625L179.239 122.123L173.782 121.99V124.511L173.638 132.337L172.059 202.514V205.167L178.233 205.3L211.549 205.698L289.524 204.636L345.098 202.248L350.555 201.85L350.411 198.401Z" fill="#1260F5"/>
<path fill-rule="evenodd" clip-rule="evenodd" d="M351.276 212.33L350.989 208.749L350.845 205.299L350.558 201.85L345.101 202.248L289.527 204.636L211.552 205.697L178.236 205.299L172.062 205.167H169.764L160.717 204.901L157.845 204.769L151.814 204.636L148.942 204.503L148.798 207.952L148.654 211.402L148.511 214.851L148.367 218.432H149.229L183.98 219.228L220.742 219.626L221.173 264.996L223.758 272.955L229.502 277.996L235.677 278.261L236.969 275.874L245.442 283.037L256.499 284.098L258.509 286.221L262.53 284.496L272.582 288.874V291.395L276.316 291.262L280.193 288.211L287.373 292.456L294.122 294.711L298.718 288.874L313.365 295.242L318.822 291.129L323.273 289.537L326.864 290.333L340.362 286.751L347.542 289.537L354.004 293.384L359.605 294.313H359.748L359.605 288.343L358.025 252.26L357.881 246.291L352.281 219.494L351.419 215.779L351.276 212.33Z" fill="#1260F5"/>
<path fill-rule="evenodd" clip-rule="evenodd" d="M468.885 412.379L467.018 412.777L466.156 413.573L468.885 412.379ZM474.916 412.379L473.911 411.981L473.624 412.379H474.916ZM478.363 411.318H477.357L476.783 411.981L478.363 411.318ZM476.639 410.389L476.352 409.991L476.209 410.389H476.639ZM488.127 403.358L487.697 403.624H488.415L488.127 403.358ZM508.232 395.531L509.093 394.47L508.088 395.664L508.232 395.531ZM511.104 392.082L510.816 392.215V392.348L511.104 392.082ZM437.293 403.756L439.447 401.236L433.559 399.777L430.974 401.766L437.293 403.756ZM496.887 392.215L496.313 391.684L496.169 391.95L496.887 392.215ZM498.467 389.827L497.031 389.429L497.462 390.756L498.467 389.827ZM510.242 387.572V387.174V387.307V387.572ZM513.114 385.847L512.97 385.715L513.114 385.98V385.847ZM511.965 385.582L511.678 385.449L511.534 385.847L511.965 385.582ZM501.913 385.184L503.206 384.786V384.388L501.913 385.184ZM502.631 384.521L503.349 383.858L503.206 383.725L502.631 384.521ZM497.605 379.612L497.318 379.878H497.462L497.605 379.612ZM444.616 305.324H444.329L390.191 309.967L376.549 310.895L372.098 311.293L372.241 314.477L375.113 340.08L379.852 346.183L379.996 349.764L384.591 357.193L388.325 368.071L387.032 374.173L386.027 389.297L383.873 394.205H384.16L384.591 397.654L382.15 400.838L399.956 398.981L413.886 402.562L423.794 403.756L428.82 400.44L426.092 397.123L435.282 394.47L434.995 397.389L439.734 396.327L443.611 401.899L446.914 400.838L455.53 406.277L450.217 408.001L462.423 411.318H467.018L469.747 408.267L475.634 405.348L479.799 410.92L482.671 405.879L481.809 397.919L489.564 400.705L490.425 403.093L499.616 404.154L504.211 407.603L503.637 410.389L510.099 404.818L507.657 401.899L496.887 399.379L492.866 397.256L492.723 393.276L497.174 393.807L500.621 387.307L496.169 381.602L493.728 387.041L488.128 386.113L492.005 380.276L489.42 379.612L483.101 383.725L474.055 384.256L471.47 382.398L475.634 375.633L480.517 375.5L488.846 378.021L494.877 378.551L491.574 374.704L485.255 363.295L486.979 356.928L437.436 361.969L439.303 360.244L437.293 355.469L440.308 351.356L442.032 341.009L452.945 323.763L447.632 317.794L447.919 313.416L444.616 306.252L444.616 305.324Z" fill="#1260F5"/>
<path fill-rule="evenodd" clip-rule="evenodd" d="M298.719 504.842L291.826 480.831V485.341L298.719 504.842ZM297.14 462.657L292.257 471.147L291.683 473.933L297.14 462.657ZM301.017 456.422L305.612 450.85L302.309 452.707L301.017 456.422ZM317.244 442.891L306.474 448.064L309.489 447.534L317.244 442.891ZM318.68 441.033L321.695 438.778L320.547 439.043L318.68 441.033ZM148.369 218.433L147.363 218.3L142.481 342.733L114.048 341.539L68.5264 339.152L50.2891 337.958L53.8791 344.458L54.0227 344.591L69.5317 358.918L78.4349 368.602L90.2102 376.694L98.5391 390.756L101.698 405.481L108.448 409.593L113.761 415.032L121.372 417.553L132.429 424.053L137.455 425.778L144.348 419.41L146.502 412.644L150.092 406.144L161.293 402.032L165.601 404.022L178.094 404.95L189.439 411.451L197.193 412.777L195.039 416.492L199.491 419.145L203.655 423.788L204.517 428.696L207.245 432.013L213.564 446.074L219.882 450.983L224.765 458.412L230.939 464.249L233.668 465.045L235.965 480.168L242.715 483.617L243.002 488.392L244.725 487.994L256.501 501.26L262.388 502.454L269.855 506.567H281.343L289.672 510.812L299.581 508.822L295.129 504.975L291.108 493.831L289.529 484.147L287.231 480.964L288.236 474.463L285.221 474.198L281.2 468.096L285.795 472.606L291.108 470.882L293.98 463.851L288.236 456.687L296.852 457.616L300.873 451.911L300.299 449.921L303.889 445.544L303.027 449.391L307.048 446.472L305.469 441.299L310.638 443.819L317.244 440.37L310.782 434.135L314.803 435.594L322.27 435.992L332.035 434.002L342.948 427.237L349.554 422.196L350.559 418.481L354.58 414.634L352.426 408.267L352.857 404.287L360.037 401.368L359.463 408.399H363.771L359.032 412.114L378.131 402.828L381.29 402.695L383.3 394.205H383.875L386.029 389.297L387.034 374.173L388.326 368.071L384.593 357.193L379.998 349.764L379.854 346.183L375.115 340.08L372.243 314.477L372.099 311.293L371.812 307.977L370.951 296.303L362.334 296.568L360.18 294.446L359.75 294.313H359.606L354.006 293.384L347.544 289.537L340.363 286.751L326.865 290.333L323.275 289.537L318.823 291.129L313.366 295.242L298.719 288.874L294.124 294.711L287.375 292.456L280.194 288.211L276.317 291.262L272.584 291.395V288.874L262.532 284.496L258.511 286.221L256.5 284.098L245.443 283.037L236.971 275.874L235.678 278.261L229.503 277.996L223.759 272.955L221.174 264.996L220.744 219.626L183.982 219.228L149.23 218.432L148.369 218.433Z" fill="#1260F5"/>
<path fill-rule="evenodd" clip-rule="evenodd" d="M512.253 242.311L512.828 243.372L514.838 244.566L515.699 298.956L515.987 328.804L523.31 369.663L523.885 369.531L530.347 370.725L532.07 358.918L534.942 365.551L539.825 369.663L549.159 364.622L548.153 363.826L548.441 363.959L541.979 350.295L604.014 341.009L608.179 340.346V340.213L604.301 333.447L604.014 323.763L600.855 318.457L602.435 308.11L605.02 305.457L594.393 287.946L575.15 233.821L575.007 233.556L570.699 234.219L547.722 237.668L536.234 238.995L512.109 242.046L512.253 242.311Z" fill="#1260F5"/>
<path fill-rule="evenodd" clip-rule="evenodd" d="M714.011 502.587H713.723L713.867 502.72L714.011 502.587ZM712.718 502.454V502.587H712.862L712.718 502.454ZM691.896 504.444H691.753V504.577L691.896 504.444ZM732.679 496.087H732.535L732.679 496.352V496.087ZM736.556 495.158V494.893L736.269 495.291L736.556 495.158ZM735.12 494.893L734.546 494.362L734.402 494.495L735.12 494.893ZM734.689 495.954L732.966 493.964L733.971 495.689L734.689 495.954ZM748.331 488.127V488.658L748.619 488.392L748.331 488.127ZM750.342 486.801L750.773 486.137L750.198 486.668L750.342 486.801ZM750.773 485.474H750.629V485.607L750.773 485.474ZM749.48 483.086L749.337 482.953V483.219L749.48 483.086ZM750.485 479.902L750.198 480.035L750.629 480.168L750.485 479.902ZM751.06 479.902L750.773 479.637L750.916 480.035L751.06 479.902ZM750.055 479.637L749.911 479.504V479.77L750.055 479.637ZM755.368 478.708V478.576L755.081 479.106L755.368 478.708ZM749.337 479.239H749.049L749.337 479.372V479.239ZM752.352 477.647H751.921L751.778 477.78L752.352 477.647ZM741.439 477.514V477.249L741.295 477.514H741.439ZM742.731 477.116H742.3L742.731 477.912V477.116ZM739.285 477.249V476.453L738.567 476.586L739.285 477.249ZM737.274 475.923L737.992 476.586V476.321L737.274 475.923ZM758.384 476.719L755.799 477.78L756.66 477.913L758.384 476.719ZM738.279 475.525H737.418V475.79L738.279 475.525ZM760.968 468.892L761.112 468.228L761.256 466.504L760.968 468.892ZM761.112 461.463L760.538 460.136L760.25 460.667L761.112 461.463ZM727.94 464.779L727.653 465.177L728.371 465.31L727.94 464.779ZM725.212 463.585L723.919 463.983L724.925 464.116L725.212 463.585ZM722.34 463.851V463.453L722.196 463.585L722.34 463.851ZM719.324 463.718L718.462 464.249L719.611 464.779L719.324 463.718ZM723.345 463.851L723.201 463.453L722.483 463.32L723.345 463.851ZM704.533 450.85L703.672 451.248L705.395 451.779L704.533 450.85ZM701.087 446.605L699.938 445.013L700.369 446.207L701.087 446.605ZM705.538 449.258L703.528 445.013L702.092 444.615L705.538 449.258ZM699.794 443.952L699.363 442.891L699.076 442.227L699.794 443.952ZM687.875 429.227L685.291 427.502L686.296 428.431L687.875 429.227ZM752.496 420.339L742.013 404.154H741.439L752.496 420.339ZM679.977 394.47L679.546 394.338L679.977 394.603V394.47ZM679.116 393.542L678.972 393.674L679.116 393.807V393.542ZM678.111 392.215V392.082L677.967 392.215H678.111ZM678.685 391.684L679.116 391.95V391.684H678.685ZM679.546 391.154L678.972 391.287H679.116L679.546 391.154ZM678.541 391.021L678.111 390.623L678.254 390.756L678.541 391.021ZM677.536 389.562H677.249L677.68 389.695L677.536 389.562ZM678.541 387.97H677.967L677.823 388.103L678.541 387.97ZM679.116 388.235L678.398 387.572L678.685 387.705L679.116 388.235ZM673.659 382.531L673.372 382.398V382.531H673.659ZM667.484 382.531L667.053 382L667.197 382.664L667.484 382.531ZM615.213 378.153L619.521 375.102L614.782 378.021L615.213 378.153ZM623.829 371.786L624.26 371.388L622.537 372.051L623.829 371.786ZM569.261 362.898L553.608 367.541L562.224 365.285L569.261 362.898ZM608.177 340.346L604.012 341.009L541.977 350.295L548.439 363.959L548.869 364.091L547.29 369.531L551.885 367.673L556.911 363.561L565.527 363.296L575.436 359.979L582.185 360.908L580.605 363.163L592.955 367.01L603.581 371.786L606.023 377.092L613.921 375.5L632.589 361.438L639.482 361.704L667.628 381.337L673.372 380.276L679.403 387.705L680.552 399.511L678.685 406.94L679.546 410.655L684.573 419.941L682.275 412.645L688.737 412.512L689.311 417.818L685.865 426.043L697.784 441.166L702.236 441.299L698.502 436.656L703.097 437.186L705.826 435.594L704.677 444.085L710.852 448.595L715.016 458.942L720.616 462.126L727.797 463.851L737.705 475.525L742.875 478.045L735.982 478.443L739.141 481.76L750.486 478.31L756.086 475.392L761.256 458.677L758.671 432.676L758.096 430.023L744.311 408.797L732.535 393.409L725.93 380.806L731.53 385.184L732.679 384.388L735.12 395.399L741.439 403.756L735.264 392.613L735.551 387.307L717.026 366.479L712.575 359.979L706.687 348.968L702.666 339.682L699.507 336.366L698.789 332.121L698.645 331.988L688.737 331.458L684.86 334.243L682.706 344.458L680.695 339.682L612.916 347.509L608.033 340.478L608.177 340.346Z" fill="#1260F5"/>
<path fill-rule="evenodd" clip-rule="evenodd" d="M700.946 312.355L700.802 308.375L699.797 311.824L700.946 312.355ZM702.526 306.252L701.951 303.201L701.52 305.058L702.526 306.252ZM635.32 222.677L633.454 223.075L627.997 224.137L607.892 227.984L606.026 228.382L604.015 228.647L592.814 230.637L589.799 231.168L577.593 233.29L575.008 233.555L575.151 233.821L594.394 287.945L605.02 305.456L602.436 308.109L600.856 318.457L604.015 323.763L604.303 333.447L608.18 340.213V340.346L608.036 340.478L612.918 347.509L680.698 339.682L682.709 344.458L684.863 334.243L688.74 331.457L698.648 331.988L697.787 317.661L699.654 314.61L698.648 308.906L700.659 303.467L703.674 300.415L701.52 298.558L706.546 292.854H706.403L697.787 285.425L686.011 269.904L679.549 267.118L651.834 245.627L645.085 237.668L632.017 232.627L631.299 229.974L635.32 222.677Z" fill="#1260F5"/>
<path fill-rule="evenodd" clip-rule="evenodd" d="M509.951 376.164L509.233 376.296V376.429L509.951 376.164ZM523.306 374.572H521.296L523.163 374.704L523.306 374.572ZM506.648 375.898L506.074 376.429L506.218 376.562L506.648 375.898ZM520.147 374.837H514.69L519.86 374.97L520.147 374.837ZM460.265 248.414V248.546L454.234 257.832L454.808 264.996L446.623 273.353L448.777 275.741L443.32 296.967L445.905 301.477L444.469 302.406L444.613 305.324V306.253L447.916 313.416L447.628 317.794L452.942 323.764L442.028 341.009L440.305 351.357L437.289 355.469L439.299 360.245L437.433 361.969L486.975 356.928L485.252 363.296L491.57 374.704L494.873 378.552V378.419L500.186 372.847L511.387 370.592L521.727 371.653L523.306 369.796V369.663L515.982 328.805L515.695 298.956L514.834 244.566L512.823 243.373L512.249 242.311H511.962L504.782 243.24L492.145 244.832L463.424 248.148L460.265 248.414Z" fill="#1260F5"/>
<path fill-rule="evenodd" clip-rule="evenodd" d="M635.318 222.677L631.297 229.974L632.015 232.627L645.083 237.668L651.832 245.627L679.547 267.118L686.009 269.904L697.784 285.425L706.4 292.854L707.836 286.751L705.539 280.914L711.714 285.16L715.16 282.639L709.272 278.129L716.452 277.731L727.653 268.975L726.361 266.72L733.254 261.812L732.536 259.424L737.562 256.505L737.849 249.74L745.747 236.209L751.06 229.974L751.635 229.708L719.612 211.003L707.693 213.126L691.466 212.595L683.424 208.748L635.749 222.677H635.318Z" fill="#1260F5"/>
<path fill-rule="evenodd" clip-rule="evenodd" d="M475.054 204.504L474.624 203.442L473.762 203.177L473.188 204.901L473.331 205.034L474.911 204.901L475.054 204.504ZM573.277 117.745L572.99 118.01L574.857 124.51L567.103 130.215L560.784 130.347L562.22 135.389L553.173 146.399L553.317 150.246L543.121 149.45L539.388 156.216L532.495 155.287L527.9 158.471L527.038 161.522L518.996 158.736L512.534 160.726H507.221L505.067 164.441L504.493 164.573V164.971L502.339 169.482L504.78 172.666L495.733 177.574L497.887 183.411L495.158 186.329L484.101 183.544L481.229 189.779L482.091 190.574L482.378 191.105L481.086 201.983L480.511 202.248L476.778 204.371L476.634 204.769L480.798 204.238L509.806 200.657L508.37 195.35L513.252 195.217L571.698 188.054L612.768 181.686L613.342 181.288L614.347 180.227L625.118 174.921L633.446 164.839L634.595 161.39L640.052 157.41L646.945 149.318L647.95 147.991L647.519 147.858H643.929L639.334 145.47L631.149 136.317L628.277 127.031V126.766L627.99 126.5L621.958 123.317L619.23 119.071L613.773 123.98L610.327 124.776L606.019 123.184L602.285 125.837L594.53 122.653L592.52 123.449L585.196 117.612L581.463 115.888L574.426 116.684L573.277 117.745Z" fill="#1260F5"/>
<path fill-rule="evenodd" clip-rule="evenodd" d="M766.569 225.065L764.989 226.524L765.276 226.79L766.569 225.065ZM767.717 217.371L766.999 218.432L767.287 219.494L767.717 217.371ZM776.333 205.034L774.18 206.36L773.031 207.952L776.333 205.034ZM794.858 196.676L793.996 196.146L792.13 196.013L794.858 196.676ZM790.981 195.88H789.688L787.534 196.942L790.981 195.88ZM795.433 197.34L799.597 187.788L796.725 191.768L795.433 197.34ZM801.607 184.737L803.474 182.217H802.469L801.607 184.737ZM813.67 174.39L810.511 159.665L813.239 167.359L813.67 174.39ZM796.15 140.827L795.863 140.96L795.433 141.093H795.576L803.474 153.43L809.649 159.134L796.15 140.827ZM793.566 141.623L792.417 141.888L792.704 142.021H795.145L794.858 141.225L794.427 141.358H793.996V141.623L793.709 141.756L793.566 141.623ZM660.735 171.869L660.017 173.859L660.16 179.563L658.581 179.431L654.847 186.462L650.682 186.86L642.928 193.89L639.482 192.697L635.03 198.799L623.255 208.616L617.511 209.942L611.479 215.116L611.192 218.565L605.879 221.218L606.023 227.055V228.382L607.889 227.984L627.994 224.137L633.45 223.075L635.317 222.677H635.748L683.424 208.748L691.465 212.595L707.692 213.126L719.611 211.003L751.634 229.708L752.209 229.31L767 223.739L767.143 216.442L772.457 207.554L778.201 202.513L790.119 195.217L791.699 192.564L794.858 193.89L796.294 185.135L794.571 188.186L788.54 190.043L782.796 190.176L789.832 185.4L787.678 183.278L790.119 178.502L776.621 176.512L776.047 175.849L787.535 173.859L791.268 175.584L796.007 175.186L799.884 172.533L802.756 167.359L805.341 166.696L804.91 159.399L801.608 156.481L798.305 159.267L799.023 166.298L796.581 157.675L794.715 157.277L780.498 162.716L786.817 157.011L787.104 154.756L793.709 153.297L795.576 148.787L800.028 151.175L795.289 144.674L791.986 142.021L734.546 157.144L697.927 165.767L660.878 172.135L660.735 171.869Z" fill="#1260F5"/>
<path fill-rule="evenodd" clip-rule="evenodd" d="M612.772 181.686L571.702 188.054L513.256 195.217L508.374 195.35L509.81 200.656L480.803 204.238L476.638 204.769V204.901L475.489 206.228L474.915 206.095V205.034V204.901L473.335 205.034L473.479 205.167L474.341 208.881L471.469 212.197L471.181 218.3V219.361V219.494L466.873 227.188L467.735 232.627L463.714 238.464L465.15 243.77L459.98 248.148L460.268 248.413L463.427 248.148L492.147 244.832L504.784 243.24L511.964 242.311H512.251L512.108 242.046L536.233 238.995L547.721 237.668L570.697 234.219L575.005 233.556L577.59 233.29L589.796 231.168L592.812 230.637L604.013 228.647L606.023 228.382V227.055L605.879 221.218L611.192 218.565L611.48 215.116L617.511 209.942L623.255 208.616L635.03 198.799L639.482 192.697L642.928 193.891L650.683 186.86L654.847 186.462L658.581 179.431L660.16 179.564L660.017 173.859L660.735 171.869L658.437 172.267L650.252 174.39L640.487 176.247L615.931 180.89L613.346 181.288L612.772 181.686Z" fill="#1260F5"/>
<path fill-rule="evenodd" clip-rule="evenodd" d="M793.998 141.358H794.429L794.86 141.225L794.572 140.562L793.998 141.358ZM789.115 126.5V127.164L789.834 126.766L789.115 126.5ZM790.839 123.449L790.551 125.174L790.121 125.837L790.839 123.449ZM792.131 120L792.275 119.204L791.988 120H792.131ZM792.993 116.418L793.424 115.49L792.706 117.878L792.993 116.418ZM793.136 114.428L793.711 111.51L792.993 112.173L793.136 114.428ZM795.721 101.295L796.008 100.101L795.865 100.367L795.721 101.295ZM795.147 98.2441L793.28 98.9074L790.408 100.101L789.403 101.295L789.834 101.428L786.387 121.194L787.68 124.378L789.69 116.153L793.424 105.408L795.147 98.3768V98.2441ZM798.019 97.1828L797.588 97.3155L797.444 97.8461L796.726 101.959L797.301 100.499L798.019 97.1828ZM647.956 147.991L646.95 149.318L640.057 157.41L634.601 161.389L633.452 164.839L625.123 174.921L614.353 180.227L613.348 181.288L615.932 180.89L640.488 176.247L650.253 174.39L658.438 172.267L660.736 171.869L660.88 172.135L697.929 165.767L734.547 157.144L791.988 142.021L791.557 141.358L791.413 140.96L792.418 141.889L793.567 141.623L793.424 141.491L792.418 136.98L793.136 137.113L795.434 141.093L795.865 140.96L796.152 140.827L795.578 139.766L789.69 131.409L782.366 132.602L779.063 135.123L775.904 132.47L765.134 129.153L757.667 128.888L772.171 127.694L780.212 132.735L782.51 129.419L776.048 121.857L780.643 122.122L778.202 116.02L772.458 116.286L758.816 106.071H757.092L776.335 114.826L775.043 108.724L776.335 106.734L766.57 103.285L758.098 102.754L753.933 99.3052L750.487 101.295L749.194 92.1417L750.63 92.407L750.343 84.9781L750.056 84.7128L749.769 84.8455L749.482 84.7128L748.764 84.1822L748.333 83.7842L743.737 81.927L738.999 78.7432L732.393 77.1513L731.962 77.0186V77.1513L731.101 82.7229L717.746 77.4166L718.033 85.1108L710.709 97.9786L706.258 102.489L703.386 110.316L694.626 107.53L690.318 125.572L686.871 131.674L686.297 139.633L683.712 143.48L674.091 146.134L666.193 151.838L662.459 152.369L658.869 155.287L649.822 152.236L648.243 148.124L647.956 147.991Z" fill="#1260F5"/>
<path fill-rule="evenodd" clip-rule="evenodd" d="M687.445 76.7532L667.054 81.3963L660.735 56.1912L660.448 56.3239L659.73 85.3761L655.135 91.7437L649.821 95.4581L648.816 94.3968L642.929 101.826L643.359 107.663L639.769 108.193L634.887 115.092L636.61 119.602L634.456 123.98L628.281 126.766V127.031L631.153 136.317L639.339 145.47L643.934 147.858H647.524L647.955 147.991L648.242 148.124L649.821 152.236L658.868 155.287L662.458 152.369L666.192 151.838L674.09 146.134L683.711 143.481L686.296 139.633L686.871 131.674L690.317 125.572L694.625 107.53L703.385 110.316L706.257 102.489L710.708 97.9787L718.032 85.1109L717.745 77.4167L731.1 82.723L731.961 77.1514V77.0187L727.797 70.3857L719.181 69.4571L714.155 73.0389V75.6921L709.847 76.6207L703.528 80.7331L700.226 81.3964L693.62 90.0192L690.317 76.09L687.445 76.7532Z" fill="#1260F5"/>
<path fill-rule="evenodd" clip-rule="evenodd" d="M771.887 54.8646L772.461 56.8545L784.38 88.2946L798.022 84.5801L797.879 84.3148H798.166L798.597 84.4475L798.884 84.3148L798.597 83.7842L795.15 75.294L778.349 60.5689L779.067 50.3542H775.62L773.036 52.2115L771.887 54.8646Z" fill="#1260F5"/>
<path fill-rule="evenodd" clip-rule="evenodd" d="M748.766 84.1824L749.484 84.7131L749.771 84.8458L750.058 84.7131L750.345 84.8458L751.35 85.3764L751.638 85.7744V86.703L751.925 87.2336L753.792 84.0498L751.781 82.9885L749.34 83.1212L748.766 84.1824Z" fill="#1260F5"/>
<path fill-rule="evenodd" clip-rule="evenodd" d="M798.165 96.652L799.17 89.4884L798.308 94.7948L797.734 97.0499L797.59 97.3153L798.021 97.1826L798.165 96.652ZM798.883 84.3147L798.596 84.4474L798.883 85.2434V86.8353V84.3147ZM690.32 76.0899L693.623 90.019L700.229 81.3963L703.532 80.733L709.85 76.6205L714.158 75.6919V73.0388L719.184 69.457L727.8 70.3856L731.965 77.0185L732.396 77.1512L739.001 78.7431L743.74 81.9269L748.335 83.7841L748.766 84.1821L749.34 83.1209L751.782 82.9881L753.792 84.0494L751.925 87.2332V87.3659L749.197 95.0601L758.1 100.366L767.003 100.764L772.891 103.285L770.45 96.9173L762.839 94.5295L760.972 89.0905L765.711 94.9275L769.588 95.4581L766.142 92.2743L763.413 82.8555L764.131 77.4165L761.116 71.4469L764.275 69.0591L766.573 61.3649L765.711 72.7735L768.152 76.6206L770.45 72.1102L771.742 79.5391L769.301 84.9781L776.337 87.3659L770.306 89.2231L773.465 94.6621L778.635 96.254L781.507 91.611L781.22 98.1113L786.102 97.9786L789.262 101.295H789.405L790.41 100.101L793.282 98.9071L795.149 98.2439L795.006 97.9786L798.739 87.7639V87.3659L798.021 84.7127V84.58L784.379 88.2944L772.46 56.8544L771.886 54.8645L769.445 55.5278L759.249 58.4463L703.101 72.9061L692.905 75.4266L690.32 76.0899Z" fill="#1260F5"/>
</g>
<defs>
<filter id="filter0_d_434_3235" x="0.289062" y="0.354248" width="863.379" height="560.458" filterUnits="userSpaceOnUse" color-interpolation-filters="sRGB">
<feFlood flood-opacity="0" result="BackgroundImageFix"/>
<feColorMatrix in="SourceAlpha" type="matrix" values="0 0 0 0 0 0 0 0 0 0 0 0 0 0 0 0 0 0 127 0" result="hardAlpha"/>
<feOffset/>
<feGaussianBlur stdDeviation="25"/>
<feComposite in2="hardAlpha" operator="out"/>
<feColorMatrix type="matrix" values="0 0 0 0 0.0705882 0 0 0 0 0.376471 0 0 0 0 0.960784 0 0 0 0.37 0"/>
<feBlend mode="normal" in2="BackgroundImageFix" result="effect1_dropShadow_434_3235"/>
<feBlend mode="normal" in="SourceGraphic" in2="effect1_dropShadow_434_3235" result="shape"/>
</filter>
</defs>
</svg>
