<svg width="506" height="542" viewBox="0 0 506 542" fill="none" xmlns="http://www.w3.org/2000/svg">
<path fill-rule="evenodd" clip-rule="evenodd" d="M19.5622 180.444L42.3948 186.812L103.856 202.465L109.457 203.792L113.477 204.72L149.808 212.68L170.056 216.792L174.077 217.588L174.651 214.802L188.294 162.535L184.416 154.045L184.847 150.728L199.782 132.687L206.818 116.37L201.936 111.462L201.792 108.941V108.808L199.064 108.278L158.712 99.7875L156.558 100.716L148.66 99.5222L132.72 101.114L122.955 99.9202L112.616 99.7875L111.754 97.3996L89.9267 95.5424L82.1722 91.6953L81.167 89.1748L82.0286 79.2254L76.859 74.0517L76.4282 74.1844L75.423 74.8477L68.2429 71.3986L63.9349 72.5925L61.0629 71.2659L58.0473 82.6745L56.0368 85.8583L47.1336 105.89L44.5487 116.9L42.9691 117.033L34.6403 135.34L29.0398 143.167L27.0294 144.493L21.8597 153.779L20.8545 163.596L17.6953 172.352L19.5621 180.311L19.5622 180.444ZM72.1202 71.5313L71.6894 70.3374L71.5458 71.266L72.1202 71.5313Z" fill="#1260F5" fill-opacity="0.22" stroke="white" stroke-opacity="0.37" stroke-width="2" stroke-linejoin="round"/>
<path fill-rule="evenodd" clip-rule="evenodd" d="M300.87 238.15L263.821 232.977L243.142 229.926L239.121 229.262L238.259 233.507L230.649 276.489L215.714 362.319L214.996 366.564L218.73 367.094L255.779 372.533L281.771 375.982L330.164 381.554L333.898 381.952L334.185 378.503L335.334 368.023L338.062 343.879L345.817 274.764L346.248 271.315L343.376 271.05L306.757 266.937L301.157 266.274L304.747 240.406L305.034 238.681L300.87 238.15Z" fill="#1260F5" fill-opacity="0.22" stroke="white" stroke-opacity="0.37" stroke-width="2" stroke-linejoin="round"/>
<path fill-rule="evenodd" clip-rule="evenodd" d="M468.461 57.7352L420.929 54.8167L386.321 51.7656L351.857 48.0511L330.46 45.398L296.283 40.4896L279.194 37.8364L240.996 31.0709L236.976 30.2749L230.801 57.3372L233.529 62.2456L235.683 69.8071L234.391 70.8684L237.119 77.7666L240.853 80.6851L251.479 97.1348L252.485 99.9206L256.793 99.6553L251.767 121.411L249.756 121.942L247.028 129.238L261.244 130.167L262.393 136.269L270.435 154.443L271.871 155.504L277.471 166.117L278.907 165.056L290.826 164.923L305.904 166.382L309.638 161.872L314.089 169.301L314.951 169.699L315.095 168.903L317.105 155.902L366.217 161.474L405.42 164.923L426.099 166.515L463.004 168.505L464.871 168.638H465.302L465.445 166.78L465.876 157.627L466.451 145.555L466.594 142.504L466.881 137.198L469.179 95.5429L471.046 63.1742L471.189 57.8679L468.461 57.7352Z" fill="#1260F5" fill-opacity="0.22" stroke="white" stroke-opacity="0.37" stroke-width="2" stroke-linejoin="round"/>
<path fill-rule="evenodd" clip-rule="evenodd" d="M236.832 30.275L224.051 27.8871L219.887 26.9585L218.02 26.5605L201.362 95.8083L202.08 101.513L201.506 107.482L201.793 108.809V108.941L201.937 111.462L206.819 116.37L199.783 132.687L184.848 150.729L184.417 154.045L188.295 162.535L174.653 214.803L174.078 217.589L178.099 218.385L218.738 225.814L234.965 228.599L239.129 229.263L243.15 229.926L263.829 232.977L300.878 238.151L305.042 238.681L305.617 234.304L306.909 225.681L311.792 191.19L314.377 174.077L314.951 169.699L314.089 169.301L309.638 161.872L305.904 166.383L290.826 164.923L278.907 165.056L277.471 166.117L271.871 155.505L270.435 154.443L262.393 136.269L261.244 130.167L247.028 129.238L249.756 121.942L251.766 121.411L256.792 99.6554L252.484 99.9207L251.479 97.1349L240.853 80.6853L237.119 77.7668L234.391 70.8685L235.683 69.8073L233.529 62.2457L230.801 57.3374L236.975 30.2751L236.832 30.275Z" fill="#1260F5" fill-opacity="0.22" stroke="white" stroke-opacity="0.37" stroke-width="2" stroke-linejoin="round"/>
<path fill-rule="evenodd" clip-rule="evenodd" d="M63.7861 63.3067L63.9297 61.0516L63.6425 61.1842L63.7861 63.3067ZM94.3731 51.2348L95.2347 49.9082L94.2296 49.7756L94.3731 51.2348ZM91.6447 48.847L92.5063 46.1938L91.6447 45.9285V48.847ZM102.128 44.9999L101.984 42.3467L99.5427 45.7958L102.128 44.9999ZM102.415 39.4282L102.846 36.7751L102.558 36.1118L102.415 39.4282ZM102.846 26.4277L102.702 24.9685L102.128 24.8358L102.846 26.4277ZM107.441 17.6723L106.148 17.5396L103.564 21.254L107.441 17.6723ZM103.851 14.0905L104.569 13.5598L104.713 13.1619L103.851 14.0905ZM103.133 14.4884L102.702 11.8353L101.41 14.0905L103.133 14.4884ZM102.415 10.774L101.122 10.2434L102.128 11.57L102.415 10.774ZM106.723 13.0292V11.3046L106.292 11.9679L106.723 13.0292ZM108.015 11.3046L107.441 10.9067H107.297L108.015 11.3046ZM99.83 8.38616L99.112 7.85552L98.8248 7.72287L99.83 8.38616ZM105.143 7.85552L101.266 8.78413L102.271 9.04945L105.143 7.85552ZM101.984 7.59021L101.266 6.79425L101.122 6.92691L101.984 7.59021ZM105 5.9983H104.425L105.143 6.26362L105 5.9983ZM76.8538 74.0521L82.0234 79.2258L81.1618 89.1751L82.167 91.6956L89.9215 95.5427L111.749 97.4L112.611 99.7878L122.95 99.9205L132.715 101.114L148.654 99.5225L156.552 100.716L158.707 99.7879L199.058 108.278L201.787 108.809L201.5 107.482L202.074 101.512L201.356 95.8081L218.014 26.5604L215.716 26.1624L182.114 18.8662L152.819 11.968L119.647 3.47785L109.738 1.22266L112.036 12.7639L109.882 16.4784L106.005 14.6212L109.738 30.6728L105.718 35.9792L103.851 40.8875V45.9286L95.3784 51.3675L91.7883 49.245L88.3419 50.8369L94.6603 43.2754L93.0807 48.4491L96.6708 44.8673L99.5428 45.3979L98.6812 38.765L100.548 39.0303L104.425 31.0708L103.133 29.8769L98.1068 35.8465L94.8039 35.9792L98.394 32.2647L102.415 31.3361L100.979 24.5705L96.958 23.6419L94.9475 20.4581L92.5063 21.652L79.295 16.3457L67.6633 7.98823L64.5041 16.0804L64.2169 19.5295L66.6581 25.6318L65.0785 45.3979L63.9297 48.4491L70.3917 48.9797L63.9297 53.2248L67.3761 54.8167L64.6477 63.3068L63.3553 56.6739L60.9141 64.3681L64.2169 68.0825L67.8069 67.8172L72.115 70.205L74.269 74.0521L76.8538 74.0521Z" fill="#1260F5" fill-opacity="0.22" stroke="white" stroke-opacity="0.37" stroke-width="2" stroke-linejoin="round"/>
<path fill-rule="evenodd" clip-rule="evenodd" d="M330.167 381.554L281.774 375.983L255.782 372.534L218.733 367.095L214.999 366.564V366.829L208.681 392.565L205.378 392.432L200.352 388.32L194.033 393.228L193.89 414.321L191.592 418.831V419.229V419.362L191.305 422.678L196.331 435.148L200.783 440.72L192.741 445.098L189.582 450.537L184.412 462.211L181.827 462.741L181.684 472.425L186.135 475.477L183.838 481.314L178.668 481.579L175.652 486.753L185.992 492.722L205.521 502.804L265.834 532.387L316.956 538.224H317.53L321.551 499.09L322.556 489.406L333.327 386.728L333.901 381.952L330.167 381.554Z" fill="#1260F5" fill-opacity="0.22" stroke="white" stroke-opacity="0.37" stroke-width="2" stroke-linejoin="round"/>
<path fill-rule="evenodd" clip-rule="evenodd" d="M84.3255 455.179L84.8999 458.098V458.629L84.3255 455.179ZM63.2162 443.771L64.2214 445.761L64.7958 445.628L63.2162 443.771ZM88.3464 443.373L88.7772 446.822L91.362 448.546L88.3464 443.373ZM70.9706 424.535L69.391 424.137L70.6834 424.668L70.9706 424.535ZM55.0309 420.556L51.1537 422.678L52.1589 423.607L55.0309 420.556ZM47.5636 418.035L47.2764 419.096L48.5688 419.362L47.5636 418.035ZM60.2005 420.688L66.519 424.005L67.6678 423.076L60.2005 420.688ZM26.5978 304.479L26.4542 304.081V304.612L26.5978 304.479ZM109.456 203.792L103.855 202.465L42.394 186.811L19.5614 180.444V180.974L18.269 194.108L12.2377 209.629L2.18563 221.17L1.89844 227.007L6.78087 235.099L9.22211 245.712L5.77566 254.335L6.35008 262.957L4.62687 266.539L10.5145 278.346L14.2481 282.856L13.9609 295.724L22.8642 303.551L28.0339 295.591L33.6343 299.704L35.7883 297.847L28.0339 299.173L27.8902 305.939L29.4698 314.429L25.1618 310.582L22.7206 305.408L22.0025 312.572L24.013 326.766L32.0546 335.919L26.7414 342.287L27.603 350.379L33.3471 358.604L43.3991 384.075L46.5584 385.666L45.5531 403.31L47.1328 405.433L68.6729 412.596L75.2786 419.096L77.5762 423.341L83.8947 426.658L90.7875 427.852L93.6596 435.148L99.4036 437.669L108.02 447.087L116.061 459.424L115.487 470.833L119.939 476.272L178.671 481.578L183.841 481.313L186.139 475.476L181.687 472.425L181.831 462.741L184.416 462.21L189.585 450.536L192.744 445.097L200.786 440.72L196.334 435.148L191.308 422.678L191.596 419.362V419.229L187.862 414.586L176.374 400.391L154.116 371.472L123.098 330.348L105.578 307.929L88.6336 285.377L108.163 208.833L109.456 203.792Z" fill="#1260F5" fill-opacity="0.22"/>
<path d="M11.2325 303.816L11.0889 303.949M84.3255 455.179L84.8999 458.098V458.629L84.3255 455.179ZM63.2162 443.771L64.2214 445.761L64.7958 445.628L63.2162 443.771ZM88.3464 443.373L88.7772 446.822L91.362 448.546L88.3464 443.373ZM70.9706 424.535L69.391 424.137L70.6834 424.668L70.9706 424.535ZM55.0309 420.556L51.1537 422.678L52.1589 423.607L55.0309 420.556ZM47.5636 418.035L47.2764 419.096L48.5688 419.362L47.5636 418.035ZM60.2005 420.688L66.519 424.005L67.6678 423.076L60.2005 420.688ZM26.5978 304.479L26.4542 304.081V304.612L26.5978 304.479ZM109.456 203.792L103.855 202.465L42.394 186.811L19.5614 180.444V180.974L18.269 194.108L12.2377 209.629L2.18563 221.17L1.89844 227.007L6.78087 235.099L9.22211 245.712L5.77566 254.335L6.35008 262.957L4.62687 266.539L10.5145 278.346L14.2481 282.856L13.9609 295.724L22.8642 303.551L28.0339 295.591L33.6343 299.704L35.7883 297.847L28.0339 299.173L27.8902 305.939L29.4698 314.429L25.1618 310.582L22.7206 305.408L22.0025 312.572L24.013 326.766L32.0546 335.919L26.7414 342.287L27.603 350.379L33.3471 358.604L43.3991 384.075L46.5584 385.666L45.5531 403.31L47.1328 405.433L68.6729 412.596L75.2786 419.096L77.5762 423.341L83.8947 426.658L90.7875 427.852L93.6596 435.148L99.4036 437.669L108.02 447.087L116.061 459.425L115.487 470.833L119.939 476.272L178.671 481.578L183.841 481.313L186.139 475.476L181.687 472.425L181.831 462.741L184.416 462.21L189.585 450.536L192.744 445.097L200.786 440.72L196.334 435.148L191.308 422.678L191.596 419.362V419.229L187.862 414.586L176.374 400.391L154.116 371.472L123.098 330.348L105.579 307.929L88.6336 285.377L108.163 208.833L109.456 203.792Z" stroke="white" stroke-opacity="0.37" stroke-width="2" stroke-linejoin="round"/>
<path fill-rule="evenodd" clip-rule="evenodd" d="M503.93 307.265L504.505 281.264L497.612 280.999L462.573 279.805L459.127 279.672L456.255 279.54L413.605 277.019L385.172 274.897L349.702 271.713L346.256 271.315L345.825 274.764L338.071 343.879L335.342 368.023L334.193 378.503L333.906 381.952L338.358 382.35L410.733 388.187L442.612 390.044L474.348 391.371L478.943 391.504L481.816 391.636L487.847 391.769L490.719 391.902L499.766 392.167H502.063V389.514L503.643 319.338L503.787 311.511V308.99L503.93 307.265Z" fill="#1260F5" fill-opacity="0.22" stroke="white" stroke-opacity="0.37" stroke-width="2" stroke-linejoin="round"/>
<path fill-rule="evenodd" clip-rule="evenodd" d="M215.72 362.319L230.654 276.489L238.265 233.507L239.127 229.262L234.962 228.599L218.736 225.813L178.096 218.384L174.076 217.588L170.055 216.793L149.807 212.68L113.476 204.721L109.455 203.792L108.163 208.833L88.6328 285.377L105.578 307.929L123.097 330.348L154.115 371.472L176.373 400.392L187.861 414.586L191.595 419.229V418.831L193.893 414.321L194.036 393.228L200.355 388.32L205.381 392.432L208.683 392.565L215.002 366.829V366.564L215.72 362.319Z" fill="#1260F5" fill-opacity="0.22" stroke="white" stroke-opacity="0.37" stroke-width="2" stroke-linejoin="round"/>
<path fill-rule="evenodd" clip-rule="evenodd" d="M478.512 401.851L478.656 398.402L478.799 394.953L478.943 391.504L474.348 391.371L442.612 390.044L410.732 388.187L338.357 382.35L333.906 381.952L333.331 386.728L322.561 489.405L321.556 499.09L317.535 538.224L318.11 538.356L337.927 540.081L339.793 530.795L343.383 528.142L383.592 531.458H383.879L380.289 524.958L398.526 526.152L444.048 528.54L472.481 529.734L477.363 405.3L478.369 405.433L478.512 401.851Z" fill="#1260F5" fill-opacity="0.22" stroke="white" stroke-opacity="0.37" stroke-width="2" stroke-linejoin="round"/>
<path fill-rule="evenodd" clip-rule="evenodd" d="M462.137 220.64L463.286 199.945L464.722 172.087L464.866 168.638L462.999 168.505L426.093 166.515L405.415 164.923L366.212 161.474L317.1 155.902L315.09 168.903L314.946 169.699L314.371 174.077L311.787 191.19L306.904 225.681L305.612 234.303L305.037 238.681L304.75 240.406L301.16 266.274L306.761 266.937L343.379 271.05L346.251 271.315L349.697 271.713L385.167 274.897L413.6 277.02L456.249 279.54L459.121 279.673L459.265 276.224L459.983 262.294L461.276 238.018L461.85 227.671L461.994 224.221L462.137 220.64Z" fill="#1260F5" fill-opacity="0.22" stroke="white" stroke-opacity="0.37" stroke-width="2" stroke-linejoin="round"/>
</svg>
