<svg width="253" height="284" viewBox="0 0 253 284" fill="none" xmlns="http://www.w3.org/2000/svg">
<path fill-rule="evenodd" clip-rule="evenodd" d="M214.359 181.178L213.928 180.913V181.311L214.359 181.178ZM210.051 177.596L211.056 177.198V176.668L210.051 177.596ZM227.858 167.249L227.714 165.392L227.427 164.331L227.858 167.249ZM165.104 153.585L164.099 153.983L155.913 156.238L153.042 157.167L149.739 158.096L148.59 158.494V158.892L149.021 165.79L149.451 172.157L149.882 177.994L150.6 178.392L153.185 177.729L164.817 174.545L165.104 175.209L185.783 167.912L185.926 168.178L187.793 167.514L194.399 165.127L200.717 172.157L201.579 171.494L202.01 169.504L201.866 172.688H203.302L203.733 174.28L205.025 176.535L211.774 168.974L217.375 170.698L218.667 168.045L227.858 163.535L223.98 156.504L224.986 161.014L220.247 164.331L214.934 164.729L204.307 154.249L199.568 147.616L204.307 142.973L199.425 142.707L197.414 138.33L197.271 138.064L189.085 146.289L170.992 151.861L165.104 153.585Z" fill="#C9D7FD" stroke="white" stroke-opacity="0.37" stroke-width="2" stroke-linejoin="round"/>
<path fill-rule="evenodd" clip-rule="evenodd" d="M185.784 167.912L165.105 175.209L164.818 174.545L153.186 177.729L150.602 178.392L150.889 179.719L156.346 199.22L158.069 201.21L154.335 205.455L156.92 207.71L165.249 200.281L169.7 194.577L170.562 196.169L191.528 187.546L191.959 187.148L191.815 183.964L190.953 181.178L186.502 169.637L185.927 168.178L185.784 167.912Z" fill="#C9D7FD" stroke="white" stroke-opacity="0.37" stroke-width="2" stroke-linejoin="round"/>
<path fill-rule="evenodd" clip-rule="evenodd" d="M166.4 75.8472L164.533 77.9697L162.379 77.5717L161.23 86.3272V86.4598L164.677 98.3991L164.39 100.787L158.215 108.348L159.794 115.247V123.87L158.646 131.829L165.108 153.585L170.995 151.86L189.089 146.289L197.274 138.064V135.941L197.705 132.492L196.7 132.89L196.556 132.094L187.509 121.88L187.222 120.951L166.4 75.8472Z" fill="#C9D7FD" stroke="white" stroke-opacity="0.37" stroke-width="2" stroke-linejoin="round"/>
<path fill-rule="evenodd" clip-rule="evenodd" d="M199.863 179.852L199.719 177.066L199.288 178.127L199.863 179.852ZM202.735 177.729L200.868 174.413L200.725 177.862L202.735 177.729ZM201.873 173.617L202.879 176.004L204.171 178.127L205.033 176.535L203.74 174.28L203.309 172.688H201.873V173.617ZM185.934 168.178L186.508 169.637L190.96 181.178L191.821 183.964L191.965 187.148L192.252 186.75L199.145 181.709L197.853 172.688L200.725 172.157L194.406 165.126L187.801 167.514L185.934 168.178Z" fill="#C9D7FD" stroke="white" stroke-opacity="0.37" stroke-width="2" stroke-linejoin="round"/>
<path fill-rule="evenodd" clip-rule="evenodd" d="M165.107 153.585L158.645 131.829L159.794 123.87V115.247L158.214 108.349L164.389 100.787L164.676 98.3992L161.23 86.46L159.363 87.1233L151.465 89.7764L143.71 92.5623L125.904 98.5319L124.898 98.7972L131.361 112.726L133.515 125.86L141.125 136.87L148.305 158.626L148.593 158.493L149.741 158.095L153.044 157.167L155.916 156.238L164.102 153.983L165.107 153.585Z" fill="#C9D7FD" stroke="white" stroke-opacity="0.37" stroke-width="2" stroke-linejoin="round"/>
<path fill-rule="evenodd" clip-rule="evenodd" d="M155.915 255.334L155.197 253.742V255.334H155.915ZM157.351 250.426L157.782 246.446L156.92 249.895L157.351 250.426ZM151.464 209.7L136.385 206.251L133.801 205.587L131.359 205.057L125.328 217.394L127.913 220.312L127.769 229.2L130.498 229.598L136.098 243.13L135.811 243.528L128.775 253.079L129.493 260.375L146.437 265.682L146.581 271.784L150.458 266.743L151.033 259.447L155.054 256.926L153.474 251.487L156.49 244.987V230.792L155.484 226.149L148.735 226.282L150.458 219.914L151.464 209.7Z" fill="#C9D7FD" stroke="white" stroke-opacity="0.37" stroke-width="2" stroke-linejoin="round"/>
<path fill-rule="evenodd" clip-rule="evenodd" d="M151.039 220.445L148.885 223.231L148.31 224.027L151.039 220.445ZM170.856 213.945L178.036 208.108V207.842L170.856 213.945ZM152.044 218.057V213.547L151.613 215.934L152.044 218.057ZM185.36 196.832L183.636 196.434L183.349 197.628L185.36 196.832ZM189.237 194.444L189.093 195.77L189.38 194.974L189.237 194.444ZM185.216 194.576L175.595 202.801L160.804 208.638L156.927 211.689L156.639 214.608L152.619 217.659L153.193 221.639L159.368 219.384L168.415 212.618L178.467 207.71L193.689 194.444L182.918 202.005L179.472 203.332L185.216 194.576ZM189.668 189.005L190.242 188.209L188.519 190.066L189.668 189.005ZM28.2599 184.096L25.9623 183.831L27.6854 185.954L28.2599 184.096ZM75.9355 143.503L76.2227 142.044L75.0739 143.37L75.9355 143.503ZM76.6535 133.952L76.0791 134.217L75.3611 135.676L76.6535 133.952ZM15.9102 209.302L16.9154 213.281L24.5262 215.006L68.181 203.995L112.123 191.791L120.165 197.495L121.744 200.811L131.078 204.526L131.366 205.057L133.807 205.587L136.392 206.25L151.47 209.7L151.183 209.036L152.475 214.475L155.347 213.812L156.927 207.842V207.71L154.342 205.454L158.075 201.209L156.352 199.219L150.895 179.719L150.608 178.392L149.89 177.994L149.459 172.157L149.029 165.79L148.598 158.891V158.493L148.31 158.626L141.13 136.87L133.52 125.859L131.366 112.726L124.903 98.7971L124.042 99.1951L94.0293 108.481L87.998 114.451L81.2488 126.39L81.5359 129.043L72.6327 141.513L78.0895 143.238L79.6692 152.656L73.3507 160.351L54.3953 170.963L50.8053 169.637L36.7323 171.494L23.6647 178.79L24.3827 182.637L28.9779 186.352L26.3931 198.026L16.0538 209.169L15.9102 209.302Z" fill="#C9D7FD" stroke="white" stroke-opacity="0.37" stroke-width="2" stroke-linejoin="round"/>
<path fill-rule="evenodd" clip-rule="evenodd" d="M131.076 204.526L121.742 200.812L120.162 197.495L112.121 191.791L68.1788 203.995L24.524 215.006L16.9131 213.281L15.9079 209.302L13.4668 211.026L9.58952 213.547L2.55304 220.18L1.69141 220.843L5.71225 237.16L6.43031 240.078L10.0203 254.406L10.7383 257.191L17.0568 282.396L37.4482 277.753L40.3201 277.09L42.905 276.427L53.1006 273.906L109.249 259.447L119.444 256.528L121.886 255.865L123.035 253.212L125.619 251.354H129.066L129.497 250.16L135.097 244.324L135.671 243.395L136.102 243.13L130.502 229.598L127.773 229.2L127.917 220.312L125.332 217.394L131.363 205.057L131.076 204.526Z" fill="#C9D7FD" stroke="white" stroke-opacity="0.37" stroke-width="2" stroke-linejoin="round"/>
<path fill-rule="evenodd" clip-rule="evenodd" d="M200.292 133.819H200.149L200.436 133.952L200.292 133.819ZM210.919 105.563L209.77 103.971V104.767L210.919 105.563ZM208.908 104.104V102.777L208.765 101.981L208.908 104.104ZM214.078 98.532L213.791 98.3994L213.934 98.7973L214.078 98.532ZM228.438 91.8991L228.151 89.9092L227.576 90.8378L228.438 91.8991ZM224.848 92.6951L224.992 91.2358L223.268 91.5011L224.848 92.6951ZM230.161 88.3173H229.587V88.5826L230.161 88.3173ZM222.981 90.3072L221.689 90.0419L221.545 91.2358L222.981 90.3072ZM230.305 86.1948L231.597 87.1234L231.166 86.0621L230.305 86.1948ZM226.428 86.3274L225.135 88.5826L226.858 87.7867L226.428 86.3274ZM220.253 86.4601L219.678 87.2561L220.109 88.45L220.253 86.4601ZM228.725 82.0824L228.582 81.0211L228.151 81.6844L228.725 82.0824ZM228.007 82.613L226.715 81.5517V82.4803L228.007 82.613ZM219.966 85.6641L219.678 84.2049L219.104 85.3988L219.966 85.6641ZM233.608 81.0211L231.454 83.9396L231.31 81.817L233.608 81.0211ZM244.091 72.133L243.085 70.8064L242.511 71.0717L244.091 72.133ZM247.968 66.1634L247.106 65.7654L246.963 66.1634H247.968ZM249.835 55.816H248.542L249.978 56.214L249.835 55.816ZM251.989 57.1426L251.558 54.7547L250.409 54.6221L251.989 57.1426ZM249.691 55.0201L249.404 52.4995L248.399 54.2241L249.691 55.0201ZM166.402 75.8474L187.225 120.951L187.512 121.88L196.559 132.095V131.962L197.995 131.564L198.282 124.002L200.579 121.349L202.015 114.318L200.723 113.124L203.164 106.226L211.493 102.644L216.95 96.5421L218.96 85.9294L227.72 85.3988L226.571 79.9598L237.485 76.1127L238.203 70.1431L240.788 70.6737L247.968 65.2347L251.127 58.2038L243.803 51.4382L236.049 49.979L233.177 44.54V41.3562L228.438 42.6828L223.125 40.9582V35.5192L208.765 6.86499L198.282 1.82397L186.65 10.8447L183.491 10.3141L180.762 5.67107L177.029 6.99765L171.716 31.4068L173.582 39.3663L175.162 55.5506L170.998 68.0205L173.87 70.0104L170.423 76.1127L166.69 75.5821L166.402 75.8474Z" fill="#C9D7FD" stroke="white" stroke-opacity="0.37" stroke-width="2" stroke-linejoin="round"/>
</svg>
