<svg width="534" height="365" viewBox="0 0 534 365" fill="none" xmlns="http://www.w3.org/2000/svg">
<path fill-rule="evenodd" clip-rule="evenodd" d="M147.887 13.929L150.759 23.3478L156.79 57.3083L159.662 70.8395L160.524 82.7787L163.827 89.9423L164.545 96.0446L165.119 98.0345L164.975 98.4324L159.231 107.188L162.965 113.025L170.145 159.721L170.432 165.823L177.612 165.425L205.902 163.966L276.553 158.527L283.59 157.863V157.2L281.579 146.985L272.82 142.873L265.927 136.24L255.013 130.138L251.567 129.873L246.254 126.158L247.69 107.851L242.664 103.606L244.387 96.1772L253.577 88.4831L251.998 72.5641L255.3 69.1149L266.501 58.2369L279.282 43.1139L284.164 39.9301L292.78 36.083L301.827 29.848L295.796 30.9093L292.206 28.3888L278.42 30.1134L276.266 27.7255L263.917 32.3686L254.008 28.5215L251.28 25.4703L243.382 26.0009L238.068 23.4804L239.792 21.6232L233.042 19.6333H227.011L217.39 23.4804L215.523 20.8273L200.301 18.8374L195.132 6.89813L194.557 3.31635L187.951 1.5918L188.526 11.8065L171.007 13.0004L149.323 13.7964L147.887 13.929Z" fill="#C9D7FD" stroke="white" stroke-opacity="0.37" stroke-width="2" stroke-linejoin="round"/>
<path fill-rule="evenodd" clip-rule="evenodd" d="M144.871 13.9289L101.504 14.7249L71.204 14.5922L45.2122 14.0616L14.7687 13.0003L13.1891 12.8677L13.0454 18.174L11.1786 50.5427L8.88095 92.1974L8.59375 97.5038L14.1942 97.7691L77.5223 99.361L135.968 98.963L160.237 98.2997L165.119 98.0344L164.545 96.0445L163.827 89.9422L160.524 82.7787L159.662 70.8394L156.79 57.3083L150.759 23.3477L147.887 13.929L144.871 13.9289Z" fill="#C9D7FD" stroke="white" stroke-opacity="0.37" stroke-width="2" stroke-linejoin="round"/>
<path fill-rule="evenodd" clip-rule="evenodd" d="M300.245 183.201L292.347 179.354L288.039 173.915L286.603 166.088L287.752 162.506L283.588 157.863L276.551 158.527L205.899 163.966L177.61 165.425L170.43 165.823L167.414 165.956L169.855 180.681L167.845 187.711L171.004 192.089V193.018L172.009 193.151L176.605 205.62L181.056 212.121L181.343 219.55L186.226 225.785L185.364 228.438L189.816 245.153V245.551L219.254 244.755L250.703 242.234L281.577 238.652L288.614 244.357L288.901 244.622L290.193 244.091L289.188 238.918L294.501 235.867L296.655 222.335L294.501 221.407L295.794 214.509L302.256 213.315L309.436 208.539L312.595 200.181L312.739 195.936L306.995 190.895L305.271 187.712L299.814 184.528L300.102 183.864L300.245 183.201Z" fill="#C9D7FD" stroke="white" stroke-opacity="0.37" stroke-width="2" stroke-linejoin="round"/>
<path fill-rule="evenodd" clip-rule="evenodd" d="M288.617 244.356L281.581 238.652L250.706 242.234L219.258 244.754L189.819 245.55L189.676 246.346L193.266 252.714L196.569 254.836L200.446 261.204L201.02 261.735L202.456 262.796L205.903 265.051L209.636 264.918L211.647 268.235L206.621 273.939L211.79 278.184L212.365 280.837L218.827 284.287L222.417 340.401L222.56 343.85L222.848 347.299L222.991 350.748L223.279 354.33L223.422 357.779L230.171 357.381L276.411 353.932L331.123 349.024L333.852 354.198L327.533 363.484L343.042 361.361H343.186V360.3L343.473 354.198L346.345 350.881L345.483 347.167L345.34 347.034L345.196 346.901L345.77 345.177L346.632 345.442L347.063 346.503L346.919 346.901V347.034V348.095L347.494 348.228L348.642 346.901V346.769L348.786 346.371L352.52 344.248L353.094 343.983L354.387 333.105L354.099 332.574L353.668 332.441L343.473 324.747L345.052 321.961L342.18 314.4L337.011 310.686L327.246 306.706L321.071 302.063L321.789 292.511L323.656 283.623L313.317 284.154L310.157 281.103L308.721 275L292.351 262.265L287.756 250.459L288.904 244.622L288.617 244.356Z" fill="#C9D7FD" stroke="white" stroke-opacity="0.37" stroke-width="2" stroke-linejoin="round"/>
<path fill-rule="evenodd" clip-rule="evenodd" d="M168.277 192.752L163.825 188.64L148.173 184.395L143.147 184.262L135.536 186.252L126.489 180.946L98.1995 181.211L56.986 180.813L8.30519 179.354L3.9971 179.221L3.85348 182.67L3.27909 193.018L1.98664 217.294L1.26862 231.223L1.125 234.672L4.57141 234.805L39.6101 235.999L46.503 236.264L45.9286 262.265L45.7849 263.99L51.2417 264.123L70.6279 264.388H118.878L143.147 263.857L196.135 262L201.018 261.735L200.443 261.204L196.566 254.837L193.263 252.714L189.673 246.346L189.817 245.551V245.153L185.365 228.438L186.227 225.784L181.344 219.549L181.057 212.121L176.606 205.62L172.01 193.15L171.005 193.018L168.277 192.752Z" fill="#C9D7FD" stroke="white" stroke-opacity="0.37" stroke-width="2" stroke-linejoin="round"/>
<path fill-rule="evenodd" clip-rule="evenodd" d="M160.234 98.2996L135.966 98.9629L77.5201 99.3609L14.192 97.769L8.59156 97.5037L8.44789 100.555L7.8735 112.627L7.44268 121.78L7.29901 123.637H6.8682L6.72457 127.086L5.28855 154.945L4.13976 175.639L3.99609 179.221L8.30413 179.354L56.9849 180.813L98.1985 181.211L126.488 180.946L135.535 186.252L143.146 184.262L148.172 184.395L163.824 188.64L168.276 192.753L171.004 193.018V192.089L167.845 187.712L169.856 180.681L167.414 165.955L170.43 165.823L170.143 159.721L162.963 113.025L159.229 107.188L164.973 98.4323L165.117 98.0343L160.234 98.2996Z" fill="#C9D7FD" stroke="white" stroke-opacity="0.37" stroke-width="2" stroke-linejoin="round"/>
<path fill-rule="evenodd" clip-rule="evenodd" d="M300.104 183.864L299.817 184.528L305.273 187.712L306.997 190.895L312.741 195.936L312.597 200.181L309.438 208.539L302.258 213.315L295.796 214.509L294.503 221.407L296.657 222.335L294.503 235.867L289.19 238.918L290.195 244.091L288.903 244.622L287.754 250.459L292.349 262.266L308.72 275.001L310.156 281.103L313.315 284.154L323.654 283.624L321.787 292.512L321.069 302.063L327.244 306.706L337.009 310.686L342.179 314.4L345.051 321.962L343.471 324.748L353.667 332.442L354.098 332.575L353.236 331.779L356.108 325.544L367.165 328.33L369.894 325.411L367.74 319.574L376.787 314.666L374.345 311.482L376.5 306.972V306.574L375.925 306.441L376.069 294.634L379.228 292.512L384.685 280.705L383.536 275.531L379.946 269.296L381.956 262.266L371.904 196.865L370.468 195.406L366.735 187.579L363.719 184.66L362.427 176.966V176.701L343.04 179.221L331.409 180.548L300.104 183.864Z" fill="#C9D7FD" stroke="white" stroke-opacity="0.37" stroke-width="2" stroke-linejoin="round"/>
<path fill-rule="evenodd" clip-rule="evenodd" d="M431.64 186.65L409.669 190.232L404.643 191.161L386.837 193.814L383.103 196.6L377.503 198.987L375.349 198.855L372.764 197.661L371.902 196.865L381.954 262.265L379.944 269.296L383.534 275.531L384.683 280.705L379.226 292.512L376.067 294.634L375.923 306.441L376.498 306.573L377.072 306.441L379.226 302.726H384.539L391.001 300.736L399.043 303.522L399.905 300.471L404.5 297.287L411.393 298.216L415.126 291.45L425.322 292.246L425.178 288.399L434.225 277.389L432.789 272.348L439.108 272.215L446.862 266.511L444.995 260.01L445.282 259.745L444.995 257.49L436.379 210.529L432.502 190.497L432.071 188.375L431.64 186.65Z" fill="#C9D7FD" stroke="white" stroke-opacity="0.37" stroke-width="2" stroke-linejoin="round"/>
<path fill-rule="evenodd" clip-rule="evenodd" d="M532.021 195.406L528.431 181.079L527.713 178.16L523.692 161.843L518.522 164.894L507.465 172.721L500.285 180.813L494.684 181.609L484.345 187.048L478.601 183.865L461.225 182.007L452.035 184.13L442.988 186.12L433.51 187.977L432.074 188.375L432.505 190.497L436.382 210.529L444.998 257.49L445.286 259.745L446.434 258.684L453.471 257.888L457.204 259.613L464.528 265.45L466.539 264.654L474.293 267.837L478.027 265.184L482.335 266.776L485.781 265.98L491.238 261.072L493.966 265.317L499.998 268.501L500.285 268.766L506.46 265.98L508.614 261.602L506.89 257.092L511.773 250.194L515.363 249.663L514.932 243.826L520.82 236.397L521.825 237.459L527.138 233.744L531.733 227.377L532.452 198.324L532.739 198.192L532.021 195.406Z" fill="#C9D7FD" stroke="white" stroke-opacity="0.37" stroke-width="2" stroke-linejoin="round"/>
<path fill-rule="evenodd" clip-rule="evenodd" d="M365.73 97.2385L362.14 101.351L359.986 107.321L360.992 110.637L365.73 97.2385ZM283.303 66.0637L285.457 63.2779L283.878 64.6045L283.303 66.0637ZM286.606 61.686L285.888 60.8901L284.308 61.8187L286.606 61.686ZM255.301 69.1149L251.998 72.564L253.578 88.483L244.387 96.1772L242.664 103.606L247.69 107.851L246.254 126.158L251.567 129.872L255.014 130.138L265.927 136.24L272.82 142.873L281.58 146.985L283.59 157.2V157.863L287.755 162.506L286.606 166.088L288.042 173.915L292.35 179.354L300.248 183.201L300.104 183.864L331.41 180.548L343.041 179.221L362.427 176.701L361.853 174.711V168.476L357.976 161.843L356.971 153.486L358.837 144.2L357.832 137.036L361.279 128.148L359.986 126.689L360.273 118.464L362.14 112.229L359.986 110.106L355.822 111.433L353.524 117.005L348.067 119.923L349.791 112.892L354.673 106.923L354.96 104.269L355.104 104.137L348.211 97.769V88.7483L340.456 82.9113L329.83 82.248L318.916 79.5948L295.366 72.9619L290.771 70.5741L290.34 70.9721L283.016 70.0434L280.575 71.37L281.58 61.686L269.805 67.2576L255.445 69.3802L255.301 69.1149ZM283.447 62.084L283.16 61.1554L282.154 61.5534L283.447 62.084ZM278.277 61.1554L278.708 60.3594L278.421 60.0941L278.277 61.1554ZM288.76 58.9002L288.329 57.043L287.898 59.2982L288.76 58.9002Z" fill="#C9D7FD" stroke="white" stroke-opacity="0.37" stroke-width="2" stroke-linejoin="round"/>
<path fill-rule="evenodd" clip-rule="evenodd" d="M386.695 101.882L385.977 100.82L385.833 102.147L386.695 101.882ZM388.993 99.4938L387.27 97.3713L386.982 98.2999L388.993 99.4938ZM390.429 89.9424L388.993 88.7485V89.0138L390.429 89.9424ZM386.839 193.814L404.645 191.161L409.671 190.232L431.642 186.65L432.073 188.375L433.509 187.977L442.987 186.12L452.034 184.13L461.224 182.007L461.081 181.609L465.819 172.987L465.389 165.823L470.702 153.486L474.866 155.741L476.446 152.955L476.015 142.342L472.138 135.71L466.394 121.648L461.368 116.474L458.783 115.811L449.449 121.78L450.454 122.974L445.572 131.465L440.833 130.669L439.397 121.78L441.407 121.117L445.572 112.229L446.002 96.5753L439.54 83.3095L425.18 81.0543L423.744 79.0644L410.389 75.4827L404.358 82.3809L404.932 88.3505L400.337 93.6568L401.342 101.882L396.891 104.8V94.4528L392.87 102.28L388.131 109.178L384.972 111.433L386.551 118.729L384.541 126.291L385.69 135.71L384.254 140.353L394.593 158.659L395.886 165.69L394.593 178.691L387.7 193.283L386.839 193.814ZM417.569 74.2887L413.836 74.554L416.133 76.1459L417.569 74.2887ZM395.742 77.7378H394.593L395.886 78.2685L395.742 77.7378ZM420.872 60.8902L419.436 58.7677L418.862 58.9004L420.872 60.8902ZM290.77 70.5743L295.365 72.9621L318.915 79.5951L329.829 82.2482L340.456 82.9115L348.21 88.7485V97.7693L355.103 104.137V104.004L360.703 89.0137L367.453 84.636L372.622 79.3297L373.484 84.1054L378.797 76.5439L391.578 72.0335L392.583 70.1762L405.507 71.6355L410.533 74.0233L412.974 68.1864L415.272 69.513L425.324 68.0537L422.883 64.3393L418.431 61.9514L419.293 53.3286L410.533 57.839L402.491 56.9104L399.906 51.2061L400.768 49.3489L389.854 54.1246L382.818 54.5226L370.181 61.6861L368.745 64.3393L360.991 62.6147L356.108 64.6046L346.343 56.7778L324.659 50.6755L324.229 48.2876L310.299 60.6248L302.401 62.4821L291.2 70.3089L290.77 70.5743ZM341.604 40.4608L324.803 48.155L330.403 53.196L332.557 48.155L338.302 41.6547L341.604 40.4608ZM322.793 22.2866L311.304 29.5828L310.73 33.1646L319.777 27.0623L322.793 22.2866Z" fill="#C9D7FD" stroke="white" stroke-opacity="0.37" stroke-width="2" stroke-linejoin="round"/>
</svg>
