<svg width="109" height="39" viewBox="0 0 109 39" fill="none" xmlns="http://www.w3.org/2000/svg">
<g clip-path="url(#clip0_4_85)">
<path fill-rule="evenodd" clip-rule="evenodd" d="M105.057 6.96921C104.595 6.3932 103.962 5.9732 103.159 5.70921C102.38 5.4212 101.637 5.27721 100.932 5.27721C100.517 5.27721 100.092 5.3252 99.6539 5.4212C99.2156 5.5172 98.8022 5.6732 98.4127 5.8892C98.0231 6.0812 97.7071 6.34521 97.4636 6.68121C97.2201 7.0172 97.098 7.4252 97.098 7.90521C97.098 8.67325 97.3902 9.2612 97.9744 9.66922C98.5587 10.0772 99.2891 10.4252 100.165 10.7132C101.066 11.0012 102.027 11.2892 103.049 11.5772C104.071 11.8652 105.021 12.2732 105.897 12.8012C106.798 13.3292 107.54 14.0372 108.124 14.9252C108.708 15.8132 109 17.0012 109 18.4892C109 19.9052 108.733 21.1412 108.197 22.1972C107.661 23.2532 106.931 24.1292 106.007 24.8252C105.106 25.5212 104.047 26.0373 102.83 26.3733C101.637 26.7092 100.372 26.8772 99.0328 26.8772C97.3534 26.8772 95.7962 26.6252 94.3602 26.1212C92.9242 25.6172 91.5856 24.8012 90.3444 23.6733L94.3969 19.2812C94.9804 20.0492 95.7107 20.6492 96.5872 21.0812C97.4875 21.4893 98.4127 21.6932 99.3617 21.6932C99.8239 21.6932 100.287 21.6453 100.749 21.5492C101.236 21.4292 101.662 21.2612 102.027 21.0453C102.416 20.8292 102.721 20.5533 102.939 20.2172C103.183 19.8812 103.305 19.4853 103.305 19.0292C103.305 18.2612 103.001 17.6612 102.392 17.2292C101.808 16.7732 101.066 16.3892 100.165 16.0772C99.2643 15.7652 98.2905 15.4532 97.2441 15.1412C96.1976 14.8292 95.2238 14.4092 94.3234 13.8812C93.4231 13.3532 92.6688 12.6572 92.0597 11.7932C91.4763 10.9292 91.1841 9.78917 91.1841 8.37321C91.1841 7.00521 91.4515 5.80521 91.9871 4.7732C92.5466 3.7412 93.277 2.8772 94.1774 2.1812C95.1025 1.4852 96.1609 0.969197 97.3534 0.6332C98.5468 0.2732 99.7752 0.0932007 101.041 0.0932007C102.502 0.0932007 103.913 0.2972 105.276 0.705199C106.639 1.1132 107.868 1.7972 108.963 2.7572L105.057 6.96921ZM54.047 5.32226H46.2979V0.102063H67.7806V5.32226H60.0314V26.884H54.047V5.32226ZM82.1946 5.70921C82.9978 5.9732 83.6306 6.3932 84.093 6.96921L87.9996 2.7572C86.9045 1.7972 85.6752 1.1132 84.3121 0.705199C82.9491 0.2972 81.5374 0.0932007 80.0771 0.0932007C78.8115 0.0932007 77.5823 0.2732 76.3897 0.6332C75.1971 0.969197 74.1384 1.4852 73.2135 2.1812C72.3129 2.8772 71.5828 3.7412 71.0229 4.7732C70.4875 5.80521 70.2198 7.00521 70.2198 8.37321C70.2198 9.78917 70.5118 10.9292 71.0959 11.7932C71.7044 12.6572 72.459 13.3532 73.3595 13.8812C74.26 14.4092 75.2336 14.8292 76.2802 15.1412C77.3268 15.4532 78.3003 15.7652 79.2009 16.0772C80.1014 16.3892 80.8438 16.7732 81.4279 17.2292C82.0364 17.6612 82.3406 18.2612 82.3406 19.0292C82.3406 19.4853 82.2189 19.8812 81.9755 20.2172C81.7565 20.5533 81.4522 20.8292 81.0628 21.0453C80.6977 21.2612 80.2718 21.4292 79.785 21.5492C79.3225 21.6453 78.8601 21.6932 78.3977 21.6932C77.4484 21.6932 76.5236 21.4893 75.623 21.0812C74.7469 20.6492 74.0167 20.0492 73.4325 19.2812L69.3801 23.6733C70.6213 24.8012 71.96 25.6172 73.396 26.1212C74.832 26.6252 76.3897 26.8772 78.0691 26.8772C79.4078 26.8772 80.6734 26.7092 81.866 26.3733C83.083 26.0373 84.1417 25.5212 85.0422 24.8252C85.9674 24.1292 86.6977 23.2532 87.2325 22.1972C87.7681 21.1412 88.0363 19.9052 88.0363 18.4892C88.0363 17.0012 87.7442 15.8132 87.1599 14.9252C86.5756 14.0372 85.8332 13.3292 84.9327 12.8012C84.0565 12.2732 83.1073 11.8652 82.085 11.5772C81.0628 11.2892 80.1014 11.0012 79.2009 10.7132C78.3246 10.4252 77.5945 10.0772 77.0104 9.66922C76.4262 9.2612 76.1341 8.67325 76.1341 7.90521C76.1341 7.4252 76.2558 7.0172 76.4992 6.68121C76.7426 6.34521 77.059 6.0812 77.4484 5.8892C77.8379 5.6732 78.2517 5.5172 78.6897 5.4212C79.1279 5.3252 79.5538 5.27721 79.9676 5.27721C80.6734 5.27721 81.4158 5.4212 82.1946 5.70921Z" fill="black"/>
<path d="M104.795 37.224C104.981 37.4983 105.217 37.7022 105.502 37.8358C105.794 37.9624 106.094 38.0257 106.401 38.0257C106.571 38.0257 106.747 38.0011 106.924 37.9519C107.103 37.8956 107.263 37.8148 107.406 37.7092C107.555 37.6038 107.677 37.4736 107.77 37.319C107.862 37.1642 107.909 36.9849 107.909 36.781C107.909 36.4926 107.816 36.2746 107.631 36.127C107.445 35.9722 107.214 35.8456 106.935 35.7472C106.665 35.6417 106.365 35.5432 106.037 35.4518C105.715 35.3534 105.416 35.2198 105.138 35.051C104.867 34.8822 104.639 34.6572 104.454 34.3759C104.268 34.0875 104.175 33.7007 104.175 33.2155C104.175 32.9975 104.221 32.7654 104.315 32.5193C104.414 32.2731 104.567 32.0481 104.774 31.8441C104.981 31.6402 105.245 31.4715 105.566 31.3378C105.894 31.1972 106.286 31.1269 106.743 31.1269C107.157 31.1269 107.552 31.1832 107.93 31.2956C108.308 31.4081 108.64 31.6368 108.925 31.9813L108.091 32.7303C107.962 32.5333 107.78 32.3751 107.545 32.2556C107.309 32.136 107.042 32.0763 106.743 32.0763C106.458 32.0763 106.219 32.1149 106.026 32.1923C105.84 32.2626 105.691 32.3575 105.577 32.4771C105.463 32.5896 105.381 32.7127 105.331 32.8463C105.287 32.9799 105.266 33.103 105.266 33.2155C105.266 33.532 105.359 33.7746 105.545 33.9434C105.73 34.1121 105.958 34.2492 106.229 34.3548C106.507 34.4603 106.807 34.5552 107.128 34.6396C107.456 34.724 107.755 34.8435 108.026 34.9983C108.305 35.1459 108.536 35.3498 108.722 35.61C108.907 35.8632 109 36.2148 109 36.6649C109 37.0236 108.929 37.3471 108.786 37.6354C108.651 37.9238 108.465 38.1663 108.229 38.3633C107.995 38.5601 107.716 38.7113 107.396 38.8169C107.075 38.9223 106.732 38.9751 106.368 38.9751C105.884 38.9751 105.423 38.8907 104.989 38.7219C104.554 38.5531 104.208 38.293 103.951 37.9413L104.795 37.224Z" fill="black"/>
<path d="M96.4709 31.3168H99.1131C99.6478 31.3168 100.115 31.3766 100.514 31.4961C100.921 31.6156 101.27 31.7774 101.563 31.9814C101.862 32.1782 102.108 32.4068 102.301 32.667C102.501 32.9272 102.657 33.1944 102.772 33.4687C102.885 33.7429 102.967 34.0172 103.018 34.2915C103.067 34.5657 103.092 34.8189 103.092 35.051C103.092 35.5292 103.003 35.9933 102.825 36.4435C102.647 36.8864 102.383 37.2838 102.034 37.6354C101.684 37.98 101.249 38.2578 100.728 38.4688C100.215 38.6798 99.6196 38.7852 98.9414 38.7852H96.4709V31.3168ZM97.4977 37.8358H98.7919C99.2267 37.8358 99.6367 37.7796 100.022 37.6671C100.414 37.5475 100.757 37.3717 101.05 37.1396C101.342 36.9076 101.573 36.6193 101.745 36.2747C101.916 35.9231 102.001 35.5151 102.001 35.051C102.001 34.8119 101.962 34.5341 101.883 34.2177C101.805 33.8941 101.655 33.5883 101.434 33.3C101.22 33.0116 100.921 32.769 100.535 32.5721C100.151 32.3682 99.6513 32.2662 99.0379 32.2662H97.4977V37.8358Z" fill="black"/>
<path d="M90.1018 31.3168H92.7662C93.2505 31.3168 93.6503 31.3836 93.9638 31.5172C94.2781 31.6438 94.5242 31.809 94.7018 32.013C94.8872 32.2099 95.0162 32.435 95.0871 32.6881C95.1589 32.9342 95.1939 33.1734 95.1939 33.4054C95.1939 33.6446 95.1512 33.8766 95.0657 34.1016C94.9803 34.3196 94.8556 34.5201 94.6916 34.7029C94.5344 34.8787 94.3388 35.0299 94.103 35.1565C93.8749 35.2761 93.6178 35.3499 93.3325 35.378L95.4826 38.7852H94.1996L92.2741 35.4941H91.1295V38.7852H90.1018V31.3168ZM91.1295 34.6079H92.4766C92.6765 34.6079 92.8729 34.5939 93.0651 34.5657C93.265 34.5306 93.4401 34.4708 93.5896 34.3865C93.7468 34.3021 93.8715 34.1825 93.9638 34.0278C94.0569 33.866 94.103 33.6586 94.103 33.4054C94.103 33.1522 94.0569 32.9483 93.9638 32.7936C93.8715 32.6318 93.7468 32.5088 93.5896 32.4244C93.4401 32.34 93.265 32.2838 93.0651 32.2556C92.8729 32.2204 92.6765 32.2029 92.4766 32.2029H91.1295V34.6079Z" fill="black"/>
<path d="M84.9447 31.3168H85.8751L89.1169 38.7852H87.9184L87.159 36.9393H83.554L82.8051 38.7852H81.607L84.9447 31.3168ZM86.7848 36.0531L85.3726 32.6248H85.3512L83.9177 36.0531H86.7848Z" fill="black"/>
<path d="M80.3113 32.9307C80.0973 32.6564 79.8263 32.4455 79.4982 32.2977C79.1702 32.1501 78.8314 32.0763 78.482 32.0763C78.0541 32.0763 77.6654 32.1571 77.3159 32.3189C76.9736 32.4736 76.6777 32.6881 76.428 32.9623C76.1855 33.2366 75.9966 33.5601 75.861 33.9328C75.7255 34.2985 75.6578 34.6923 75.6578 35.1142C75.6578 35.5081 75.7219 35.8808 75.8503 36.2324C75.9787 36.584 76.1641 36.8935 76.4066 37.1607C76.6491 37.428 76.945 37.6389 77.2945 37.7936C77.644 37.9484 78.0398 38.0257 78.482 38.0257C78.917 38.0257 79.2985 37.9378 79.6266 37.7619C79.9547 37.5862 80.2328 37.34 80.461 37.0236L81.3276 37.667C81.2705 37.7444 81.1707 37.8569 81.028 38.0046C80.8853 38.1452 80.6964 38.2894 80.461 38.4371C80.2257 38.5777 79.9404 38.7008 79.6052 38.8063C79.2772 38.9188 78.8956 38.9751 78.4605 38.9751C77.8615 38.9751 77.3194 38.8625 76.8345 38.6375C76.3567 38.4125 75.9466 38.1172 75.6043 37.7514C75.2691 37.3858 75.0123 36.9744 74.834 36.5172C74.6558 36.0531 74.5666 35.5854 74.5666 35.1142C74.5666 34.5376 74.6629 34.0067 74.8554 33.5214C75.048 33.0291 75.3154 32.6072 75.6578 32.2556C76.0073 31.897 76.4245 31.6191 76.9094 31.4222C77.3944 31.2254 77.9293 31.1269 78.5141 31.1269C79.0133 31.1269 79.5018 31.2218 79.9796 31.4117C80.4646 31.6015 80.8604 31.8934 81.1671 32.2872L80.3113 32.9307Z" fill="black"/>
<path d="M66.5126 31.3168H67.5396V37.8358H71.0163V38.7852H66.5126V31.3168Z" fill="black"/>
<path d="M59.9731 31.3168H64.8619V32.2662H61.0001V34.4919H64.5945V35.4413H61.0001V37.8358H65.0545V38.7852H59.9731V31.3168Z" fill="black"/>
<path d="M53.3285 31.3168V35.8949C53.3285 36.127 53.3606 36.3696 53.4247 36.6228C53.4889 36.8689 53.5959 37.0974 53.7457 37.3085C53.8954 37.5194 54.0916 37.6917 54.3341 37.8253C54.5765 37.9589 54.8761 38.0257 55.2326 38.0257C55.5893 38.0257 55.8888 37.9589 56.1313 37.8253C56.3737 37.6917 56.5699 37.5194 56.7196 37.3085C56.8694 37.0974 56.9764 36.8689 57.0405 36.6228C57.1048 36.3696 57.1368 36.127 57.1368 35.8949V31.3168H58.1639V36.0531C58.1639 36.4891 58.0889 36.8864 57.9392 37.2451C57.7894 37.5968 57.5825 37.9026 57.3187 38.1628C57.0548 38.423 56.7446 38.6235 56.388 38.7642C56.0314 38.9048 55.6463 38.9751 55.2326 38.9751C54.819 38.9751 54.4338 38.9048 54.0773 38.7642C53.7207 38.6235 53.4105 38.423 53.1466 38.1628C52.8827 37.9026 52.6759 37.5968 52.5262 37.2451C52.3763 36.8864 52.3015 36.4891 52.3015 36.0531V31.3168H53.3285Z" fill="black"/>
<path d="M46.2979 31.3168H51.0583V32.2662H47.3249V34.6079H50.8016V35.5573H47.3249V38.7852H46.2979V31.3168Z" fill="black"/>
<path d="M0.0543823 0.915876C0.0543823 0.450673 0.436835 0.0735474 0.908613 0.0735474H10.3558C10.8276 0.0735474 11.21 0.450673 11.21 0.915876V10.2315C11.21 10.6967 10.8276 11.0738 10.3558 11.0738H0.908613C0.436835 11.0738 0.0543823 10.6967 0.0543823 10.2315V0.915876Z" fill="#203469"/>
<path d="M0.0543823 14.8495C0.0543823 14.3843 0.436835 14.0071 0.908613 14.0071H10.3558C10.8276 14.0071 11.21 14.3843 11.21 14.8495V24.1651C11.21 24.6303 10.8276 25.0074 10.3558 25.0074H0.908613C0.436835 25.0074 0.0543823 24.6303 0.0543823 24.1651V14.8495Z" fill="#EF6630"/>
<path d="M0.0543823 28.7832C0.0543823 28.318 0.436835 27.9409 0.908613 27.9409H10.3558C10.8276 27.9409 11.21 28.318 11.21 28.7832V38.0988C11.21 38.564 10.8276 38.9411 10.3558 38.9411H0.908613C0.436835 38.9411 0.0543823 38.564 0.0543823 38.0988V28.7832Z" fill="#FCCD41"/>
<path d="M14.1848 0.915876C14.1848 0.450673 14.5672 0.0735474 15.039 0.0735474H24.4861C24.9579 0.0735474 25.3403 0.450673 25.3403 0.915876V10.2315C25.3403 10.6967 24.9579 11.0738 24.4861 11.0738H15.039C14.5672 11.0738 14.1848 10.6967 14.1848 10.2315V0.915876Z" fill="#96D5F4"/>
<path d="M14.1848 14.8495C14.1848 14.3843 14.5672 14.0071 15.039 14.0071H24.4861C24.9579 14.0071 25.3403 14.3843 25.3403 14.8495V24.1651C25.3403 24.6303 24.9579 25.0074 24.4861 25.0074H15.039C14.5672 25.0074 14.1848 24.6303 14.1848 24.1651V14.8495Z" fill="#117ABC"/>
<path d="M14.1848 28.7832C14.1848 28.318 14.5672 27.9409 15.039 27.9409H24.4861C24.9579 27.9409 25.3403 28.318 25.3403 28.7832V38.0988C25.3403 38.564 24.9579 38.9411 24.4861 38.9411H15.039C14.5672 38.9411 14.1848 38.564 14.1848 38.0988V28.7832Z" fill="#C7CBCA"/>
<path d="M28.3155 0.915876C28.3155 0.450673 28.6979 0.0735474 29.1697 0.0735474H38.6168C39.0886 0.0735474 39.4711 0.450673 39.4711 0.915876V10.2315C39.4711 10.6967 39.0886 11.0738 38.6168 11.0738H29.1697C28.6979 11.0738 28.3155 10.6967 28.3155 10.2315V0.915876Z" fill="#2DAC55"/>
<path d="M28.3155 14.8495C28.3155 14.3843 28.6979 14.0071 29.1697 14.0071H38.6168C39.0886 14.0071 39.4711 14.3843 39.4711 14.8495V24.1651C39.4711 24.6303 39.0886 25.0074 38.6168 25.0074H29.1697C28.6979 25.0074 28.3155 24.6303 28.3155 24.1651V14.8495Z" fill="#C0D339"/>
<path d="M28.3155 28.7832C28.3155 28.318 28.6979 27.9409 29.1697 27.9409H38.6168C39.0886 27.9409 39.4711 28.318 39.4711 28.7832V38.0988C39.4711 38.564 39.0886 38.9411 38.6168 38.9411H29.1697C28.6979 38.9411 28.3155 38.564 28.3155 38.0988V28.7832Z" fill="#94B7E1"/>
</g>
<defs>
<clipPath id="clip0_4_85">
<rect width="109" height="39" fill="white"/>
</clipPath>
</defs>
</svg>
