<svg width="97" height="34" viewBox="0 0 97 34" fill="none" xmlns="http://www.w3.org/2000/svg">
<g clip-path="url(#clip0_30_810)">
<path fill-rule="evenodd" clip-rule="evenodd" d="M93.4431 6.07552C93.031 5.57337 92.4677 5.20722 91.7532 4.97706C91.0599 4.72598 90.3993 4.60044 89.7714 4.60044C89.4034 4.60044 89.0241 4.64229 88.6341 4.72598C88.2441 4.80967 87.8762 4.94567 87.5296 5.13398C87.1829 5.30136 86.9016 5.53152 86.685 5.82444C86.4683 6.11736 86.3604 6.47306 86.3604 6.89152C86.3604 7.56109 86.6204 8.07366 87.1396 8.42938C87.6596 8.78509 88.3095 9.08845 89.0895 9.33952C89.8907 9.59059 90.7459 9.84167 91.6559 10.0927C92.5658 10.3438 93.4104 10.6995 94.1903 11.1598C94.9916 11.6202 95.6522 12.2374 96.1721 13.0115C96.6913 13.7857 96.9513 14.8214 96.9513 16.1186C96.9513 17.3531 96.7134 18.4306 96.2368 19.3512C95.7601 20.2718 95.1109 21.0355 94.2876 21.6423C93.4864 22.2491 92.5438 22.699 91.4613 22.9919C90.3993 23.2847 89.2734 23.4312 88.0822 23.4312C86.5877 23.4312 85.2011 23.2115 83.9232 22.7722C82.6454 22.3327 81.4541 21.6214 80.3496 20.638L83.9559 16.8091C84.4759 17.4786 85.1259 18.0017 85.905 18.3783C86.707 18.734 87.5296 18.9118 88.3741 18.9118C88.7862 18.9118 89.1974 18.87 89.6094 18.7863C90.042 18.6817 90.4213 18.5352 90.7459 18.347C91.0926 18.1586 91.3632 17.918 91.5586 17.6251C91.7752 17.3322 91.8832 16.9869 91.8832 16.5894C91.8832 15.9198 91.6125 15.3967 91.0713 15.0202C90.5513 14.6226 89.8907 14.2878 89.0895 14.0158C88.2875 13.7438 87.4216 13.4718 86.4904 13.1998C85.5584 12.9278 84.6925 12.5617 83.8913 12.1014C83.0893 11.6411 82.4181 11.0343 81.8768 10.2811C81.3568 9.52781 81.0969 8.53395 81.0969 7.29952C81.0969 6.10691 81.3348 5.06075 81.8114 4.16106C82.3101 3.26137 82.9593 2.50813 83.7613 1.90137C84.5838 1.29459 85.5265 0.844744 86.5877 0.551823C87.6489 0.237978 88.7428 0.0810547 89.8687 0.0810547C91.1686 0.0810547 92.4252 0.2589 93.6377 0.614592C94.8509 0.970287 95.9448 1.56659 96.9194 2.40352L93.4431 6.07552ZM48.0484 4.63972H41.1525V0.0887807H60.2701V4.63972H53.3741V23.4371H48.0484V4.63972ZM73.0972 4.97706C73.812 5.20722 74.3751 5.57337 74.7867 6.07552L78.2629 2.40352C77.2883 1.56659 76.1944 0.970287 74.9816 0.614592C73.7686 0.2589 72.5124 0.0810547 71.2128 0.0810547C70.0865 0.0810547 68.9928 0.237978 67.9314 0.551823C66.8701 0.844744 65.9279 1.29459 65.1049 1.90137C64.3035 2.50813 63.6537 3.26137 63.1555 4.16106C62.6789 5.06075 62.4407 6.10691 62.4407 7.29952C62.4407 8.53395 62.7006 9.52781 63.2204 10.2811C63.762 11.0343 64.4334 11.6411 65.2348 12.1014C66.0362 12.5617 66.9025 12.9278 67.8339 13.1998C68.7653 13.4718 69.6317 13.7438 70.4331 14.0158C71.2345 14.2878 71.8951 14.6226 72.4149 15.0202C72.9564 15.3967 73.2272 15.9198 73.2272 16.5894C73.2272 16.9869 73.1188 17.3322 72.9023 17.6251C72.7073 17.918 72.4366 18.1586 72.0901 18.347C71.7652 18.5352 71.3861 18.6817 70.9529 18.7863C70.5414 18.87 70.1298 18.9118 69.7183 18.9118C68.8736 18.9118 68.0505 18.734 67.2491 18.3783C66.4694 18.0017 65.8196 17.4786 65.2998 16.8091L61.6934 20.638C62.7981 21.6214 63.9893 22.3327 65.2673 22.7722C66.5452 23.2115 67.9314 23.4312 69.4259 23.4312C70.6172 23.4312 71.7435 23.2847 72.8048 22.9919C73.8878 22.699 74.8299 22.2491 75.6314 21.6423C76.4544 21.0355 77.1043 20.2718 77.581 19.3512C78.0569 18.4306 78.2956 17.3531 78.2956 16.1186C78.2956 14.8214 78.0356 13.7857 77.5156 13.0115C76.9956 12.2374 76.335 11.6202 75.5339 11.1598C74.7541 10.6995 73.9094 10.3438 72.9997 10.0927C72.0901 9.84167 71.2345 9.59059 70.4331 9.33952C69.6534 9.08845 69.0036 8.78509 68.4837 8.42938C67.9639 8.07366 67.704 7.56109 67.704 6.89152C67.704 6.47306 67.8123 6.11736 68.0288 5.82444C68.2455 5.53152 68.5271 5.30136 68.8736 5.13398C69.2201 4.94567 69.5884 4.80967 69.9783 4.72598C70.3681 4.64229 70.7471 4.60044 71.1154 4.60044C71.7435 4.60044 72.4041 4.72598 73.0972 4.97706Z" fill="white"/>
<path d="M93.2105 32.4517C93.3754 32.6908 93.5845 32.8686 93.8384 32.985C94.0991 33.0954 94.3652 33.1506 94.6381 33.1506C94.7909 33.1506 94.946 33.1291 95.1049 33.0862C95.2637 33.0372 95.4059 32.9667 95.5328 32.8747C95.6666 32.7827 95.7746 32.6693 95.8567 32.5344C95.9395 32.3995 95.9806 32.2432 95.9806 32.0654C95.9806 31.8141 95.8977 31.624 95.7328 31.4953C95.5678 31.3604 95.3618 31.25 95.114 31.1642C94.873 31.0722 94.6062 30.9864 94.3143 30.9067C94.0292 30.8209 93.7624 30.7044 93.5145 30.5572C93.2736 30.4101 93.0706 30.2139 92.9056 29.9687C92.7407 29.7173 92.6578 29.3801 92.6578 28.9571C92.6578 28.767 92.6996 28.5647 92.7817 28.3501C92.8707 28.1355 93.0075 27.9394 93.1915 27.7615C93.3754 27.5837 93.6103 27.4366 93.8954 27.3201C94.1873 27.1975 94.537 27.1362 94.9429 27.1362C95.3109 27.1362 95.6636 27.1853 95.9996 27.2833C96.3356 27.3814 96.6313 27.5807 96.8852 27.8811L96.1425 28.534C96.0285 28.3624 95.8666 28.2245 95.6568 28.1202C95.4477 28.016 95.2098 27.9639 94.9429 27.9639C94.689 27.9639 94.4762 27.9976 94.3051 28.065C94.1402 28.1263 94.0064 28.2091 93.9053 28.3133C93.8034 28.4114 93.7304 28.5187 93.6864 28.6352C93.6483 28.7517 93.6293 28.859 93.6293 28.9571C93.6293 29.233 93.7114 29.4445 93.8764 29.5916C94.0414 29.7387 94.2451 29.8583 94.4861 29.9503C94.7331 30.0422 95 30.125 95.2858 30.1986C95.5777 30.2722 95.8438 30.3764 96.0855 30.5113C96.3326 30.64 96.5393 30.8178 96.7043 31.0446C96.8693 31.2654 96.9514 31.5719 96.9514 31.9642C96.9514 32.2769 96.8883 32.559 96.7613 32.8103C96.6404 33.0617 96.4755 33.2732 96.2664 33.4449C96.0566 33.6165 95.8096 33.7483 95.5237 33.8403C95.2379 33.9323 94.9331 33.9782 94.61 33.9782C94.1782 33.9782 93.7685 33.9047 93.3815 33.7575C92.9946 33.6104 92.6867 33.3836 92.4579 33.077L93.2105 32.4517Z" fill="white"/>
<path d="M85.8016 27.3018H88.1529C88.6288 27.3018 89.0446 27.3539 89.4004 27.4581C89.7622 27.5623 90.0731 27.7034 90.3331 27.8812C90.6 28.0528 90.8189 28.2521 90.9899 28.4789C91.1678 28.7057 91.3077 28.9387 91.4088 29.1778C91.5106 29.4169 91.5836 29.656 91.6277 29.8951C91.6726 30.1342 91.6946 30.3549 91.6946 30.5572C91.6946 30.9741 91.6148 31.3787 91.4567 31.7712C91.2978 32.1574 91.0629 32.5038 90.752 32.8103C90.4411 33.1108 90.0541 33.3529 89.5904 33.5368C89.1335 33.7208 88.6037 33.8127 88.0009 33.8127H85.8016V27.3018ZM86.7154 32.985H87.8671C88.2548 32.985 88.6197 32.936 88.9625 32.838C89.3114 32.7337 89.6163 32.5804 89.8763 32.3781C90.1362 32.1758 90.3422 31.9244 90.495 31.624C90.6471 31.3175 90.7231 30.9619 90.7231 30.5572C90.7231 30.3488 90.6881 30.1066 90.619 29.8308C90.549 29.5487 90.416 29.2821 90.2191 29.0307C90.0283 28.7793 89.7622 28.5678 89.4194 28.3961C89.0765 28.2184 88.6318 28.1294 88.0868 28.1294H86.7154V32.985Z" fill="white"/>
<path d="M80.1345 27.3018H82.5047C82.9365 27.3018 83.2915 27.36 83.5713 27.4765C83.8503 27.5868 84.0692 27.7309 84.2281 27.9087C84.393 28.0804 84.5071 28.2766 84.5702 28.4973C84.634 28.7118 84.6659 28.9203 84.6659 29.1226C84.6659 29.3311 84.6279 29.5334 84.5512 29.7296C84.4751 29.9196 84.3641 30.0944 84.2182 30.2537C84.0783 30.4071 83.9042 30.5389 83.6944 30.6492C83.4914 30.7535 83.2634 30.8178 83.0095 30.8423L84.9229 33.8127H83.7803L82.0669 30.9435H81.0482V33.8127H80.1345V27.3018ZM81.0482 30.171H82.2478C82.4257 30.171 82.5997 30.1587 82.7715 30.1342C82.9487 30.1036 83.1045 30.0514 83.2375 29.9779C83.3774 29.9043 83.4884 29.8001 83.5713 29.6652C83.6534 29.5242 83.6944 29.3434 83.6944 29.1226C83.6944 28.9019 83.6534 28.7241 83.5713 28.5893C83.4884 28.4482 83.3774 28.3409 83.2375 28.2673C83.1045 28.1938 82.9487 28.1448 82.7715 28.1203C82.5997 28.0896 82.4257 28.0743 82.2478 28.0743H81.0482V30.171Z" fill="white"/>
<path d="M75.5446 27.3018H76.3731L79.2572 33.8127H78.1914L77.5149 32.2034H74.307L73.6406 33.8127H72.5743L75.5446 27.3018ZM77.1819 31.4309L75.9254 28.4421H75.9063L74.6306 31.4309H77.1819Z" fill="white"/>
<path d="M71.4213 28.7087C71.2309 28.4696 70.9897 28.2858 70.6977 28.157C70.4058 28.0282 70.1043 27.9639 69.7933 27.9639C69.4126 27.9639 69.0667 28.0344 68.7557 28.1754C68.4511 28.3103 68.1877 28.4973 67.9655 28.7364C67.7497 28.9755 67.5816 29.2574 67.461 29.5824C67.3404 29.9012 67.2801 30.2445 67.2801 30.6124C67.2801 30.9558 67.3373 31.2806 67.4514 31.5872C67.5657 31.8937 67.7307 32.1635 67.9465 32.3965C68.1623 32.6295 68.4257 32.8133 68.7367 32.9482C69.0476 33.0831 69.3999 33.1506 69.7933 33.1506C70.1805 33.1506 70.5201 33.074 70.812 32.9206C71.1039 32.7674 71.3514 32.5528 71.5545 32.2769L72.3257 32.8379C72.2749 32.9054 72.186 33.0034 72.0591 33.1322C71.9322 33.2548 71.764 33.3805 71.5545 33.5092C71.3451 33.6318 71.0912 33.7391 70.793 33.8311C70.501 33.9292 70.1615 33.9782 69.7743 33.9782C69.2412 33.9782 68.7589 33.8801 68.3273 33.684C67.9021 33.4878 67.5371 33.2303 67.2325 32.9115C66.9342 32.5927 66.7057 32.234 66.547 31.8355C66.3884 31.4309 66.309 31.0232 66.309 30.6124C66.309 30.1096 66.3948 29.6468 66.5661 29.2237C66.7375 28.7946 66.9755 28.4268 67.2801 28.1202C67.5911 27.8076 67.9624 27.5654 68.3939 27.3937C68.8255 27.2221 69.3015 27.1362 69.8219 27.1362C70.2662 27.1362 70.7009 27.219 71.1262 27.3845C71.5577 27.55 71.9099 27.8045 72.1828 28.1478L71.4213 28.7087Z" fill="white"/>
<path d="M59.1417 27.3018H60.0557V32.985H63.1497V33.8127H59.1417V27.3018Z" fill="white"/>
<path d="M53.3222 27.3018H57.6728V28.1294H54.2361V30.0699H57.4348V30.8975H54.2361V32.985H57.8442V33.8127H53.3222V27.3018Z" fill="white"/>
<path d="M47.4091 27.3018V31.293C47.4091 31.4953 47.4377 31.7068 47.4947 31.9275C47.5519 32.1421 47.6471 32.3413 47.7804 32.5253C47.9136 32.7092 48.0882 32.8594 48.304 32.9759C48.5198 33.0923 48.7863 33.1506 49.1036 33.1506C49.421 33.1506 49.6875 33.0923 49.9033 32.9759C50.1191 32.8594 50.2936 32.7092 50.4269 32.5253C50.5602 32.3413 50.6554 32.1421 50.7125 31.9275C50.7696 31.7068 50.7982 31.4953 50.7982 31.293V27.3018H51.7121V31.4309C51.7121 31.811 51.6455 32.1574 51.5122 32.47C51.3789 32.7766 51.1949 33.0433 50.9601 33.2701C50.7252 33.497 50.4491 33.6717 50.1318 33.7944C49.8145 33.9169 49.4718 33.9782 49.1036 33.9782C48.7355 33.9782 48.3928 33.9169 48.0755 33.7944C47.7582 33.6717 47.4821 33.497 47.2472 33.2701C47.0124 33.0433 46.8284 32.7766 46.6951 32.47C46.5618 32.1574 46.4952 31.811 46.4952 31.4309V27.3018H47.4091Z" fill="white"/>
<path d="M41.1525 27.3018H45.3888V28.1294H42.0664V30.171H45.1603V30.9987H42.0664V33.8127H41.1525V27.3018Z" fill="white"/>
<path d="M0 0.798303C0 0.392741 0.340348 0.0639648 0.760188 0.0639648H9.16734C9.58719 0.0639648 9.92752 0.392741 9.92752 0.798303V8.9196C9.92752 9.32518 9.58719 9.65394 9.16734 9.65394H0.760188C0.340348 9.65394 0 9.32518 0 8.9196V0.798303Z" fill="white"/>
<path d="M0 12.9458C0 12.5402 0.340348 12.2114 0.760188 12.2114H9.16734C9.58719 12.2114 9.92752 12.5402 9.92752 12.9458V21.0671C9.92752 21.4726 9.58719 21.8014 9.16734 21.8014H0.760188C0.340348 21.8014 0 21.4726 0 21.0671V12.9458Z" fill="white"/>
<path d="M0 25.0932C0 24.6877 0.340348 24.3589 0.760188 24.3589H9.16734C9.58719 24.3589 9.92752 24.6877 9.92752 25.0932V33.2145C9.92752 33.6201 9.58719 33.9489 9.16734 33.9489H0.760188C0.340348 33.9489 0 33.6201 0 33.2145V25.0932Z" fill="white"/>
<path d="M12.5747 0.798303C12.5747 0.392741 12.915 0.0639648 13.3349 0.0639648H21.742C22.1619 0.0639648 22.5022 0.392741 22.5022 0.798303V8.9196C22.5022 9.32518 22.1619 9.65394 21.742 9.65394H13.3349C12.915 9.65394 12.5747 9.32518 12.5747 8.9196V0.798303Z" fill="white"/>
<path d="M12.5747 12.9458C12.5747 12.5402 12.915 12.2114 13.3349 12.2114H21.742C22.1619 12.2114 22.5022 12.5402 22.5022 12.9458V21.0671C22.5022 21.4726 22.1619 21.8014 21.742 21.8014H13.3349C12.915 21.8014 12.5747 21.4726 12.5747 21.0671V12.9458Z" fill="white"/>
<path d="M12.5747 25.0932C12.5747 24.6877 12.915 24.3589 13.3349 24.3589H21.742C22.1619 24.3589 22.5022 24.6877 22.5022 25.0932V33.2145C22.5022 33.6201 22.1619 33.9489 21.742 33.9489H13.3349C12.915 33.9489 12.5747 33.6201 12.5747 33.2145V25.0932Z" fill="white"/>
<path d="M25.1498 0.798303C25.1498 0.392741 25.4901 0.0639648 25.91 0.0639648H34.3171C34.7369 0.0639648 35.0773 0.392741 35.0773 0.798303V8.9196C35.0773 9.32518 34.7369 9.65394 34.3171 9.65394H25.91C25.4901 9.65394 25.1498 9.32518 25.1498 8.9196V0.798303Z" fill="white"/>
<path d="M25.1498 12.9458C25.1498 12.5402 25.4901 12.2114 25.91 12.2114H34.3171C34.7369 12.2114 35.0773 12.5402 35.0773 12.9458V21.0671C35.0773 21.4726 34.7369 21.8014 34.3171 21.8014H25.91C25.4901 21.8014 25.1498 21.4726 25.1498 21.0671V12.9458Z" fill="white"/>
<path d="M25.1498 25.0932C25.1498 24.6877 25.4901 24.3589 25.91 24.3589H34.3171C34.7369 24.3589 35.0773 24.6877 35.0773 25.0932V33.2145C35.0773 33.6201 34.7369 33.9489 34.3171 33.9489H25.91C25.4901 33.9489 25.1498 33.6201 25.1498 33.2145V25.0932Z" fill="white"/>
</g>
<defs>
<clipPath id="clip0_30_810">
<rect width="97" height="34" fill="white"/>
</clipPath>
</defs>
</svg>
