<svg width="28" height="29" viewBox="0 0 28 29" fill="none" xmlns="http://www.w3.org/2000/svg">
<g clip-path="url(#clip0_25_45)">
<path d="M6.41661 13.3601C4.21641 13.3601 2.42661 11.5703 2.42661 9.37007C2.42661 7.16987 4.21641 5.38007 6.41661 5.38007C8.61681 5.38007 10.4066 7.16987 10.4066 9.37007C10.4066 11.5703 8.61681 13.3601 6.41661 13.3601ZM20.6666 14.5001C16.8886 14.5001 13.8266 17.5621 13.8266 21.3401C13.8266 25.118 16.8886 28.1801 20.6666 28.1801C24.4446 28.1801 27.5066 25.118 27.5066 21.3401C27.5066 17.5621 24.4446 14.5001 20.6666 14.5001ZM21.3723 24.092C20.9413 24.5229 20.3691 24.7601 19.7603 24.7601H19.758C19.1493 24.7601 18.577 24.5218 18.1472 24.0909L15.8535 21.7972L17.4655 20.1852L19.7603 22.4801L23.8814 18.359L25.4934 19.9709L21.3723 24.092ZM17.8166 8.80007C15.6164 8.80007 13.8266 7.01027 13.8266 4.81007C13.8266 2.60987 15.6164 0.820068 17.8166 0.820068C20.0168 0.820068 21.8066 2.60987 21.8066 4.81007C21.8066 7.01027 20.0168 8.80007 17.8166 8.80007ZM14.1412 14.9697C15.7977 13.2734 18.1084 12.2201 20.6666 12.2201C21.8625 12.2201 23.0047 12.4503 24.0513 12.8687C23.8119 11.2146 22.3857 9.94007 20.6666 9.94007H14.9666C13.2988 9.94007 11.9068 11.1405 11.607 12.7228C12.6615 13.1993 13.545 13.9882 14.1412 14.9697ZM9.26661 14.5001H3.56661C1.68105 14.5001 0.146606 16.0345 0.146606 17.9201V21.3401H11.5466C11.5466 19.8113 11.9228 18.3715 12.5874 17.1061C12.2215 15.6127 10.8717 14.5001 9.26661 14.5001Z" fill="url(#paint0_linear_25_45)" fill-opacity="0.6"/>
</g>
<defs>
<linearGradient id="paint0_linear_25_45" x1="13.8266" y1="0.820068" x2="13.8266" y2="28.1801" gradientUnits="userSpaceOnUse">
<stop stop-color="#1E67F7"/>
<stop offset="1" stop-color="#8EB5FF"/>
</linearGradient>
<clipPath id="clip0_25_45">
<rect width="27.36" height="27.36" fill="white" transform="translate(0.146606 0.820068)"/>
</clipPath>
</defs>
</svg>
